<svg xmlns="http://www.w3.org/2000/svg" viewBox="0 0 38 38">
  <defs>
    <style>
      .cls-1, .cls-2, .cls-3 {
        fill: none;
      }

      .cls-2 {
        stroke: #fffbfb;
      }

      .cls-2, .cls-3 {
        stroke-width: 0.8px;
      }

      .cls-3 {
        stroke: #fff;
      }

      .cls-4, .cls-6 {
        fill: #fff;
      }

      .cls-5, .cls-6 {
        stroke: none;
      }
    </style>
  </defs>
  <g id="icon_phone" data-name="icon phone" transform="translate(-20 -2974)">
    <g id="instagram_logo" data-name="instagram logo" transform="translate(0 -2052)">
      <g id="Icon.BG" class="cls-1" transform="translate(20 5026)">
        <path class="cls-5" d="M19,0A19,19,0,1,1,0,19,19,19,0,0,1,19,0Z"/>
        <path class="cls-6" d="M 19 1 C 14.19202995300293 1 9.671829223632813 2.872329711914063 6.272079467773438 6.272079467773438 C 2.872329711914063 9.671829223632813 1 14.19202995300293 1 19 C 1 23.80797004699707 2.872329711914063 28.32817077636719 6.272079467773438 31.72792053222656 C 9.671829223632813 35.12767028808594 14.19202995300293 37 19 37 C 23.80797004699707 37 28.32817077636719 35.12767028808594 31.72792053222656 31.72792053222656 C 35.12767028808594 28.32817077636719 37 23.80797004699707 37 19 C 37 14.19202995300293 35.12767028808594 9.671829223632813 31.72792053222656 6.272079467773438 C 28.32817077636719 2.872329711914063 23.80797004699707 1 19 1 M 19 0 C 29.49341011047363 0 38 8.506589889526367 38 19 C 38 29.49341011047363 29.49341011047363 38 19 38 C 8.506589889526367 38 0 29.49341011047363 0 19 C 0 8.506589889526367 8.506589889526367 0 19 0 Z"/>
      </g>
    </g>
    <path id="Path_11811" data-name="Path 11811" class="cls-2" d="M1.288,280.367A1.292,1.292,0,0,1,0,279.08V263.193a1.291,1.291,0,0,1,1.288-1.286h7.47a1.29,1.29,0,0,1,1.287,1.286V279.08a1.291,1.291,0,0,1-1.287,1.286H1.288Z" transform="translate(34.095 2721.941)"/>
    <g id="Group_3258" data-name="Group 3258" transform="translate(37.77 2985.403)">
      <path id="Path_3384" data-name="Path 3384" class="cls-3" d="M37.844,414.208c0,.077-.135.14-.307.14H35.926c-.169,0-.308-.063-.308-.14v-.058c0-.077.138-.141.308-.141h1.611c.172,0,.307.063.307.141Z" transform="translate(-35.385 -398.872)"/>
      <path id="Path_3385" data-name="Path 3385" class="cls-3" d="M36.185,273.262c0,.013-.055.024-.128.024h-2.44c-.07,0-.127-.01-.127-.024v-.01c0-.013.056-.024.127-.024h2.44c.072,0,.128.011.128.024Z" transform="translate(-33.491 -273.228)"/>
    </g>
    <rect id="Rectangle_8056" data-name="Rectangle 8056" class="cls-4" width="8.585" height="12.878" transform="translate(34.825 2986.64)"/>
  </g>
</svg>
