<svg xmlns="http://www.w3.org/2000/svg" viewBox="0 0 119.423 82.006">
  <defs>
    <style>
      .cls-1 {
        fill: #fff;
      }

      .cls-2 {
        fill: #707070;
      }

      .cls-3 {
        fill: #e18577;
      }
    </style>
  </defs>
  <g id="icon_2" data-name="icon 2" transform="translate(-118.494 -1734.538)">
    <g id="Group_3295" data-name="Group 3295" transform="translate(171.101 1734.538)">
      <path id="Path_11985" data-name="Path 11985" class="cls-1" d="M343.815,238.988V226.036h15.918a6.464,6.464,0,0,1,6.47,6.475h0a6.477,6.477,0,0,1-6.47,6.476Z" transform="translate(-299.388 -197.773)"/>
      <path id="Path_11986" data-name="Path 11986" class="cls-1" d="M343.815,270.976V258.033h12.747a6.46,6.46,0,0,1,6.469,6.474h0a6.46,6.46,0,0,1-6.469,6.468Z" transform="translate(-299.388 -216.171)"/>
      <path id="Path_11987" data-name="Path 11987" class="cls-1" d="M343.815,302.961V290.01h9.629a6.5,6.5,0,0,1,6.471,6.483h0a6.463,6.463,0,0,1-6.471,6.468Z" transform="translate(-299.388 -234.557)"/>
      <path id="Path_11988" data-name="Path 11988" class="cls-1" d="M343.815,334.953V322.007h6.5a6.5,6.5,0,0,1,6.479,6.478h0a6.482,6.482,0,0,1-6.479,6.467h-6.5Z" transform="translate(-299.388 -252.955)"/>
      <rect id="Rectangle_8152" data-name="Rectangle 8152" class="cls-1" width="5.895" height="34.53" transform="translate(0 37.864)"/>
      <path id="Path_11989" data-name="Path 11989" class="cls-1" d="M290.226,187.8v53.733H263.057a12.924,12.924,0,0,1-12.939-12.943V200.5a10.779,10.779,0,0,1,3.517-7.968c.037-.022.071-.065.108-.09a4.281,4.281,0,0,0,.377-.326,52.381,52.381,0,0,0,11.09-13.226l9.559-16.162a6.35,6.35,0,0,1,3.96-2.979,6.47,6.47,0,0,1,7.183,9.554L274.986,187.8Z" transform="translate(-245.514 -159.538)"/>
    </g>
    <rect id="Rectangle_8153" data-name="Rectangle 8153" class="cls-2" width="9.029" height="42.356" transform="translate(163.311 1768.496)"/>
    <rect id="Rectangle_8154" data-name="Rectangle 8154" class="cls-2" width="9.029" height="21.184" transform="translate(163.311 1789.67)"/>
    <path id="Rectangle_8155" data-name="Rectangle 8155" class="cls-3" d="M2,0H44.806a0,0,0,0,1,0,0V53.738a0,0,0,0,1,0,0H2a2,2,0,0,1-2-2V2A2,2,0,0,1,2,0Z" transform="translate(118.494 1762.806)"/>
    <g id="Group_3296" data-name="Group 3296" transform="translate(136.34 1806.224)">
      <path id="Path_11990" data-name="Path 11990" class="cls-1" d="M198.544,331.989a1.892,1.892,0,1,1,1.889-1.9A1.893,1.893,0,0,1,198.544,331.989Z" transform="translate(-180.01 -328.205)"/>
      <path id="Path_11991" data-name="Path 11991" class="cls-1" d="M178.968,331.989a1.892,1.892,0,1,1,1.889-1.9A1.892,1.892,0,0,1,178.968,331.989Z" transform="translate(-168.755 -328.205)"/>
      <path id="Path_11992" data-name="Path 11992" class="cls-1" d="M159.39,331.989a1.892,1.892,0,1,1,1.889-1.9A1.892,1.892,0,0,1,159.39,331.989Z" transform="translate(-157.498 -328.205)"/>
    </g>
  </g>
</svg>
