<svg xmlns="http://www.w3.org/2000/svg" viewBox="0 0 38 38"><defs><style>.cls-1,.cls-2,.cls-3{fill:none}.cls-2,.cls-3{stroke:#fffbfb;stroke-width:.8px}.cls-3{stroke:#fff}.cls-4,.cls-6{fill:#fff}.cls-5,.cls-6{stroke:none}</style></defs><g id="icon_phone" data-name="icon phone" transform="translate(-20 -2974)"><g id="instagram_logo" data-name="instagram logo" transform="translate(0 -2052)"><g id="Icon.BG" class="cls-1"><path class="cls-5" d="M19 0A19 19 0 1 1 0 19 19 19 0 0 1 19 0z" transform="translate(20 5026)"/><path class="cls-6" d="M19 1A17.882 17.882 0 0 0 6.272 6.272C2.872 9.672 1 14.192 1 19s1.872 9.328 5.272 12.728C9.672 35.128 14.192 37 19 37s9.328-1.872 12.728-5.272C35.128 28.328 37 23.808 37 19s-1.872-9.328-5.272-12.728C28.328 2.872 23.808 1 19 1m0-1c10.493 0 19 8.507 19 19s-8.507 19-19 19S0 29.493 0 19 8.507 0 19 0z" transform="translate(20 5026)"/></g></g><path id="Path_11811" data-name="Path 11811" class="cls-2" d="M1.288 280.367A1.292 1.292 0 0 1 0 279.08v-15.887a1.291 1.291 0 0 1 1.288-1.286h7.47a1.29 1.29 0 0 1 1.287 1.286v15.887a1.291 1.291 0 0 1-1.287 1.286h-7.47z" transform="translate(34.095 2721.941)"/><g id="Group_3258" data-name="Group 3258" transform="translate(37.77 2985.403)"><path id="Path_3384" data-name="Path 3384" class="cls-3" d="M37.844 414.208c0 .077-.135.14-.307.14h-1.611c-.169 0-.308-.063-.308-.14v-.058c0-.077.138-.141.308-.141h1.611c.172 0 .307.063.307.141z" transform="translate(-35.385 -398.872)"/><path id="Path_3385" data-name="Path 3385" class="cls-3" d="M36.185 273.262c0 .013-.055.024-.128.024h-2.44c-.07 0-.127-.01-.127-.024v-.01c0-.013.056-.024.127-.024h2.44c.072 0 .128.011.128.024z" transform="translate(-33.491 -273.228)"/></g><path id="Rectangle_8056" data-name="Rectangle 8056" class="cls-4" transform="translate(34.825 2986.64)" d="M0 0h8.585v12.878H0z"/></g></svg>