<svg xmlns="http://www.w3.org/2000/svg" viewBox="0 0 140.517 107.954">
  <defs>
    <style>
      .cls-1, .cls-12 {
        fill: #707070;
      }

      .cls-2 {
        fill: #565656;
      }

      .cls-3 {
        fill: #f2f2f2;
      }

      .cls-4 {
        fill: #8a8a8a;
      }

      .cls-5 {
        fill: #fff;
      }

      .cls-6 {
        fill: #e18577;
      }

      .cls-7 {
        fill: #e8e7e7;
      }

      .cls-8 {
        fill: #ff916e;
      }

      .cls-9 {
        fill: #cccbca;
      }

      .cls-10 {
        fill: #353f49;
      }

      .cls-11 {
        fill: #e6e5e5;
      }

      .cls-12 {
        opacity: 0.7;
      }
    </style>
  </defs>
  <g id="icon_3" data-name="icon 3" transform="translate(-117.748 -2038.016)">
    <g id="Group_3297" data-name="Group 3297" transform="translate(135.661 2038.016)">
      <g id="_002-alarm-clock" data-name="002-alarm-clock" transform="translate(0 0)">
        <g id="Group_3263" data-name="Group 3263" transform="translate(26.776 76.515)">
          <path id="Path_11828" data-name="Path 11828" class="cls-1" d="M173.109,338.7l-1.507-1.947,7.978-7.742,3.011,3.881Z" transform="translate(-171.602 -329.014)"/>
          <path id="Path_11829" data-name="Path 11829" class="cls-1" d="M301.522,354.149l1.948-1.515-5.807-9.479-3.885,3.011Z" transform="translate(-243.8 -337.37)"/>
        </g>
        <path id="Path_11830" data-name="Path 11830" class="cls-2" d="M309.745,175.976l-21.519-16.33.817-1.077a12.157,12.157,0,0,1,17.032-2.336l2.153,1.629a12.157,12.157,0,0,1,2.337,17.035Z" transform="translate(-213.743 -148.938)"/>
        <path id="Path_11831" data-name="Path 11831" class="cls-3" d="M296.324,162.742a1.118,1.118,0,0,1-.671-.337,1.13,1.13,0,0,1,.03-1.594A10.35,10.35,0,0,1,301.5,158a10.52,10.52,0,0,1,7.749,2.029,1.127,1.127,0,1,1-1.363,1.8,8.242,8.242,0,0,0-6.082-1.593,8.11,8.11,0,0,0-4.56,2.2A1.111,1.111,0,0,1,296.324,162.742Z" transform="translate(-217.947 -151.388)"/>
        <rect id="Rectangle_8068" data-name="Rectangle 8068" class="cls-4" width="2.454" height="2.457" transform="matrix(-0.604, 0.797, -0.797, -0.604, 86.218, 19.62)"/>
        <path id="Path_11832" data-name="Path 11832" class="cls-2" d="M211.008,150.665l-24.9,10.478-.527-1.247a12.163,12.163,0,0,1,6.491-15.922l2.49-1.045a12.153,12.153,0,0,1,15.919,6.492Z" transform="translate(-152.524 -141.973)"/>
        <path id="Path_11833" data-name="Path 11833" class="cls-3" d="M190.02,163.542a1.128,1.128,0,0,1-.956-.846,10.483,10.483,0,0,1,6.107-12.148,1.127,1.127,0,0,1,.875,2.078,8.232,8.232,0,0,0-4.8,9.529,1.131,1.131,0,0,1-1.23,1.387Z" transform="translate(-154.965 -146.987)"/>
        <g id="Group_3264" data-name="Group 3264" transform="translate(44.898 7.849)">
          <rect id="Rectangle_8069" data-name="Rectangle 8069" class="cls-4" width="2.457" height="2.457" transform="translate(3.218 7.869) rotate(157.171)"/>
          <rect id="Rectangle_8070" data-name="Rectangle 8070" class="cls-4" width="4.911" height="1.472" transform="translate(22.538 0.183) rotate(97.158)"/>
        </g>
        <g id="Group_3265" data-name="Group 3265" transform="translate(22.985 3.941)">
          <path id="Path_11834" data-name="Path 11834" class="cls-2" d="M259.3,153.354a1.721,1.721,0,0,0,1.487,1.919l5.119.645a1.722,1.722,0,0,0,1.919-1.489l.03-.242a1.725,1.725,0,0,0-1.491-1.923l-5.117-.645a1.72,1.72,0,0,0-1.917,1.492Z" transform="translate(-219.628 -151.606)"/>
          <path id="Path_11835" data-name="Path 11835" class="cls-2" d="M238.659,215.607a38.311,38.311,0,1,1-33.219-42.8A38.316,38.316,0,0,1,238.659,215.607Z" transform="translate(-162.333 -163.953)"/>
        </g>
        <path id="Path_11836" data-name="Path 11836" class="cls-5" d="M240.986,222.4a33.174,33.174,0,1,1-28.766-37.058A33.174,33.174,0,0,1,240.986,222.4Z" transform="translate(-146.772 -168.442)"/>
        <g id="Group_3266" data-name="Group 3266" transform="translate(31.534 21.049)">
          <rect id="Rectangle_8071" data-name="Rectangle 8071" class="cls-1" width="6.369" height="1.859" transform="translate(34.431 0.232) rotate(97.175)"/>
          <rect id="Rectangle_8072" data-name="Rectangle 8072" class="cls-1" width="1.851" height="6.374" transform="translate(6.554 25.892) rotate(97.141)"/>
          <rect id="Rectangle_8073" data-name="Rectangle 8073" class="cls-1" width="6.368" height="1.86" transform="translate(27.754 53.189) rotate(97.204)"/>
          <rect id="Rectangle_8074" data-name="Rectangle 8074" class="cls-1" width="1.853" height="6.37" transform="translate(59.524 32.585) rotate(97.261)"/>
          <path id="Path_11837" data-name="Path 11837" class="cls-2" d="M255.916,219.9l-2.5,18.783a1.062,1.062,0,1,0,2.106.284l2.5-18.783Z" transform="translate(-224.701 -209.072)"/>
          <path id="Path_11838" data-name="Path 11838" class="cls-2" d="M240.87,263.817l-9.328,7.734,1.357,1.634,9.325-7.737a1.06,1.06,0,1,0-1.354-1.631Z" transform="translate(-211.781 -234.877)"/>
        </g>
        <rect id="Rectangle_8075" data-name="Rectangle 8075" class="cls-6" width="0.837" height="28.186" transform="translate(83.886 59.168) rotate(111.302)"/>
        <ellipse id="Ellipse_1004" data-name="Ellipse 1004" class="cls-6" cx="2.229" cy="2.229" rx="2.229" ry="2.229" transform="translate(59.072 48.575)"/>
        <path id="Path_11839" data-name="Path 11839" class="cls-7" d="M212.218,185.334a33.172,33.172,0,1,0,28.766,37.058A33.172,33.172,0,0,0,212.218,185.334Zm-8.1,64.245a31.583,31.583,0,1,1,35.288-27.385A31.614,31.614,0,0,1,204.119,249.578Z" transform="translate(-146.77 -167.439)"/>
        <g id="Group_3267" data-name="Group 3267" transform="translate(31.44 20.943)">
          <rect id="Rectangle_8076" data-name="Rectangle 8076" class="cls-2" width="2.522" height="0.632" transform="translate(38.987 1.417) rotate(107.145)"/>
          <rect id="Rectangle_8077" data-name="Rectangle 8077" class="cls-2" width="2.511" height="0.627" transform="translate(43.781 3.419) rotate(117.111)"/>
          <path id="Path_11840" data-name="Path 11840" class="cls-2" d="M296.325,209.894l-.5-.383,1.516-2,.5.38Z" transform="translate(-249.675 -201.642)"/>
          <path id="Path_11841" data-name="Path 11841" class="cls-2" d="M304.978,218.134l-.425-.462,1.841-1.705.426.454Z" transform="translate(-254.831 -206.64)"/>
          <path id="Path_11842" data-name="Path 11842" class="cls-2" d="M312.141,227.828l-.336-.528,2.109-1.363.344.529Z" transform="translate(-259.117 -212.532)"/>
          <rect id="Rectangle_8078" data-name="Rectangle 8078" class="cls-2" width="2.517" height="0.63" transform="translate(57.523 18.565) rotate(157.058)"/>
          <rect id="Rectangle_8079" data-name="Rectangle 8079" class="cls-2" width="2.51" height="0.634" transform="translate(59.06 23.538) rotate(167.162)"/>
          <path id="Path_11843" data-name="Path 11843" class="cls-2" d="M322.809,262.555l-.029-.622,2.509-.129.03.629Z" transform="translate(-265.602 -233.726)"/>
          <path id="Path_11844" data-name="Path 11844" class="cls-2" d="M319.68,285.792l.187-.61,2.4.747-.184.6Z" transform="translate(-263.77 -247.541)"/>
          <path id="Path_11845" data-name="Path 11845" class="cls-2" d="M315.162,296.6l.285-.553,2.234,1.142-.291.56Z" transform="translate(-261.1 -253.962)"/>
          <path id="Path_11846" data-name="Path 11846" class="cls-2" d="M308.831,306.473l.382-.5,2,1.522-.381.506Z" transform="translate(-257.359 -259.827)"/>
          <path id="Path_11847" data-name="Path 11847" class="cls-2" d="M300.9,315.136l.459-.422,1.71,1.84-.464.428Z" transform="translate(-252.675 -264.992)"/>
          <rect id="Rectangle_8080" data-name="Rectangle 8080" class="cls-2" width="0.628" height="2.513" transform="translate(46.314 54.797) rotate(147.085)"/>
          <path id="Path_11848" data-name="Path 11848" class="cls-2" d="M281.244,327.77l.576-.243.975,2.314-.581.25Z" transform="translate(-241.057 -272.563)"/>
          <path id="Path_11849" data-name="Path 11849" class="cls-2" d="M270.1,331.357l.61-.141.557,2.45-.615.142Z" transform="translate(-234.47 -274.743)"/>
          <path id="Path_11850" data-name="Path 11850" class="cls-2" d="M258.527,332.966l.626-.02.119,2.511-.625.025Z" transform="translate(-227.633 -275.765)"/>
          <rect id="Rectangle_8081" data-name="Rectangle 8081" class="cls-2" width="2.513" height="0.626" transform="translate(22.079 56.094) rotate(107.283)"/>
          <path id="Path_11851" data-name="Path 11851" class="cls-2" d="M223.1,325.317l.557.288-1.149,2.237-.56-.295Z" transform="translate(-206.016 -271.257)"/>
          <path id="Path_11852" data-name="Path 11852" class="cls-2" d="M212.766,318.992l.5.384-1.517,2.006-.5-.387Z" transform="translate(-199.693 -267.52)"/>
          <rect id="Rectangle_8082" data-name="Rectangle 8082" class="cls-2" width="2.511" height="0.63" transform="translate(10.011 48.69) rotate(137.5)"/>
          <rect id="Rectangle_8083" data-name="Rectangle 8083" class="cls-2" width="2.509" height="0.627" transform="translate(7.036 44.962) rotate(147.488)"/>
          <path id="Path_11853" data-name="Path 11853" class="cls-2" d="M190.7,291.39l.244.582-2.319.978-.241-.583Z" transform="translate(-186.183 -251.209)"/>
          <rect id="Rectangle_8084" data-name="Rectangle 8084" class="cls-2" width="2.51" height="0.625" transform="translate(3.252 36.249) rotate(167.444)"/>
          <rect id="Rectangle_8085" data-name="Rectangle 8085" class="cls-2" width="2.512" height="0.632" transform="translate(2.543 31.523) rotate(176.893)"/>
          <path id="Path_11854" data-name="Path 11854" class="cls-2" d="M188.583,244.595l-.189.6-2.4-.742.193-.6Z" transform="translate(-184.77 -223.116)"/>
          <path id="Path_11855" data-name="Path 11855" class="cls-2" d="M193.2,233.265l-.284.56-2.238-1.148.293-.559Z" transform="translate(-187.537 -216.184)"/>
          <rect id="Rectangle_8086" data-name="Rectangle 8086" class="cls-2" width="0.63" height="2.512" transform="matrix(-0.605, 0.796, -0.796, -0.605, 8.247, 13.066)"/>
          <path id="Path_11856" data-name="Path 11856" class="cls-2" d="M207.963,213.912l-.46.42-1.71-1.837.467-.427Z" transform="translate(-196.47 -204.336)"/>
          <path id="Path_11857" data-name="Path 11857" class="cls-2" d="M217.667,206.482l-.53.342-1.361-2.117.528-.333Z" transform="translate(-202.37 -199.79)"/>
          <path id="Path_11858" data-name="Path 11858" class="cls-2" d="M228.525,200.856l-.577.243-.976-2.311.583-.246Z" transform="translate(-208.986 -196.343)"/>
          <path id="Path_11859" data-name="Path 11859" class="cls-2" d="M240.212,197.221l-.61.137-.562-2.443.619-.14Z" transform="translate(-216.117 -194.118)"/>
          <path id="Path_11860" data-name="Path 11860" class="cls-2" d="M252.394,195.684l-.624.021-.125-2.5.632-.034Z" transform="translate(-223.566 -193.168)"/>
        </g>
        <g id="Group_3268" data-name="Group 3268" transform="translate(0 12.889)">
          <rect id="Rectangle_8087" data-name="Rectangle 8087" class="cls-5" width="1.58" height="8.43" transform="matrix(-0.125, 0.992, -0.992, -0.125, 122.604, 44.854)"/>
          <rect id="Rectangle_8088" data-name="Rectangle 8088" class="cls-5" width="1.578" height="8.43" transform="translate(118.773 60.459) rotate(112.192)"/>
          <rect id="Rectangle_8089" data-name="Rectangle 8089" class="cls-5" width="8.43" height="1.582" transform="matrix(-0.991, 0.136, -0.136, -0.991, 122.515, 30.309)"/>
          <path id="Path_11861" data-name="Path 11861" class="cls-5" d="M383.636,207.368l-7.769,3.269-.617-1.455,7.776-3.27Z" transform="translate(-265.169 -192.644)"/>
          <rect id="Rectangle_8090" data-name="Rectangle 8090" class="cls-5" width="1.58" height="8.43" transform="translate(8.561 30.484) rotate(97.187)"/>
          <rect id="Rectangle_8091" data-name="Rectangle 8091" class="cls-5" width="8.43" height="1.58" transform="matrix(-0.991, 0.136, -0.136, -0.991, 8.593, 45.921)"/>
          <rect id="Rectangle_8092" data-name="Rectangle 8092" class="cls-5" width="1.581" height="8.43" transform="translate(12.288 17.082) rotate(112.192)"/>
          <rect id="Rectangle_8093" data-name="Rectangle 8093" class="cls-5" width="1.581" height="8.43" transform="matrix(-0.604, 0.797, -0.797, -0.604, 19.342, 5.096)"/>
        </g>
      </g>
    </g>
    <g id="icon_analytics" data-name="icon analytics" transform="translate(117.748 2093.346)">
      <rect id="Rectangle_5891" data-name="Rectangle 5891" class="cls-8" width="6.648" height="9.6" transform="translate(23.443 7.507)"/>
      <path id="Path_2279" data-name="Path 2279" class="cls-1" d="M10.755,234.038a1.976,1.976,0,0,1,1.972-1.973H45.048a1.978,1.978,0,0,1,1.971,1.973v48.679a1.976,1.976,0,0,1-1.971,1.971H12.727a1.975,1.975,0,0,1-1.972-1.971Z" transform="translate(-10.755 -232.065)"/>
      <g id="Group_875" data-name="Group 875" transform="translate(15.254 1.665)">
        <path id="Path_2280" data-name="Path 2280" class="cls-9" d="M71.161,423.1a.879.879,0,0,1-.878-.876v-.217a.881.881,0,0,1,.878-.88h4a.881.881,0,0,1,.877.88v.217a.879.879,0,0,1-.877.876Z" transform="translate(-70.283 -374.345)"/>
        <path id="Path_2281" data-name="Path 2281" class="cls-9" d="M78.893,240.37a.9.9,0,0,1,0-1.808.9.9,0,1,1,0,1.808Z" transform="translate(-76.02 -238.562)"/>
      </g>
      <ellipse id="Ellipse_485" data-name="Ellipse 485" class="cls-10" cx="0.377" cy="0.377" rx="0.377" ry="0.377" transform="translate(17.755 1.752)"/>
      <rect id="Rectangle_5916" data-name="Rectangle 5916" class="cls-5" width="32.147" height="41.11" transform="translate(2.055 5.142)"/>
      <rect id="Rectangle_5917" data-name="Rectangle 5917" class="cls-11" width="23.447" height="0.807" transform="translate(6.405 38.936)"/>
      <rect id="Rectangle_5918" data-name="Rectangle 5918" class="cls-9" width="23.447" height="2.85" transform="translate(6.405 35.279)"/>
      <g id="Group_1120" data-name="Group 1120" transform="translate(8.253 11.923)">
        <g id="Group_1119" data-name="Group 1119" transform="translate(6.828 5.442)">
          <path id="Path_3542" data-name="Path 3542" class="cls-2" d="M142.119,253.946h-1.475a2.3,2.3,0,1,1,0-4.6h3.194V250.5h-3.194a1.139,1.139,0,0,0-1.146,1.139,1.133,1.133,0,0,0,.334.809,1.147,1.147,0,0,0,.811.338h1.475Z" transform="translate(-138.337 -248.935)"/>
          <path id="Path_3543" data-name="Path 3543" class="cls-2" d="M144.831,273.462h-3.2V272.3h3.2a1.148,1.148,0,0,0,.812-.342,1.113,1.113,0,0,0,.329-.8,1.141,1.141,0,0,0-.328-.809,1.163,1.163,0,0,0-.813-.337h-1.475v-1.159h1.475a2.3,2.3,0,0,1,0,4.608Z" transform="translate(-141.049 -265.002)"/>
          <rect id="Rectangle_6719" data-name="Rectangle 6719" class="cls-2" width="1.159" height="8.864" transform="translate(2.464 0)"/>
        </g>
        <path id="Path_3544" data-name="Path 3544" class="cls-3" d="M185.528,272.15a6.944,6.944,0,0,1-2.042,4.926l2.053,2.054a9.845,9.845,0,0,0,2.892-6.981Z" transform="translate(-168.686 -262.274)"/>
        <path id="Path_3545" data-name="Path 3545" class="cls-9" d="M155.565,219.121a6.973,6.973,0,0,1,6.971,6.975h2.9a9.876,9.876,0,0,0-9.875-9.875v2.9h0Z" transform="translate(-145.694 -216.221)"/>
        <path id="Path_3546" data-name="Path 3546" class="cls-12" d="M137.959,219.117v-2.9a9.7,9.7,0,0,0-3.774.755l1.108,2.676A6.977,6.977,0,0,1,137.959,219.117Z" transform="translate(-128.09 -216.217)"/>
        <path id="Path_3547" data-name="Path 3547" class="cls-6" d="M114.461,234.547a6.972,6.972,0,1,1-7.592-11.377L105.76,220.5a9.872,9.872,0,1,0,10.757,16.1Z" transform="translate(-99.665 -219.74)"/>
      </g>
    </g>
  </g>
</svg>
