<svg xmlns="http://www.w3.org/2000/svg" viewBox="0 0 189.445 101.953">
  <defs>
    <style>
      .cls-1 {
        fill: #707070;
      }

      .cls-2 {
        fill: #565656;
      }

      .cls-3 {
        fill: #fff;
      }

      .cls-4 {
        fill: #cccbca;
      }

      .cls-5 {
        fill: #e6e5e5;
      }

      .cls-6 {
        fill: #f2f2f2;
      }

      .cls-7 {
        fill: #e18577;
      }

      .cls-8 {
        fill: #d9d8d7;
      }
    </style>
  </defs>
  <g id="icon_workers" data-name="icon workers" transform="translate(0 -91.851)">
    <g id="Group_979" data-name="Group 979" transform="translate(17.623 91.851)">
      <path id="Path_2864" data-name="Path 2864" class="cls-1" d="M200.334,119.716a5.036,5.036,0,0,0-3.612-1.488H52.734a5.089,5.089,0,0,0-5.106,5.1v88.985h154.2V123.328A5.064,5.064,0,0,0,200.334,119.716Z" transform="translate(-47.628 -118.228)"/>
    </g>
    <path id="Path_2865" data-name="Path 2865" class="cls-2" d="M254.48,125.137a2.162,2.162,0,1,1-2.163-2.152A2.162,2.162,0,0,1,254.48,125.137Z" transform="translate(-157.596 -29.374)"/>
    <g id="Group_980" data-name="Group 980" transform="translate(25.651 94.853)">
      <path id="Path_2866" data-name="Path 2866" class="cls-3" d="M255.345,127.251a.93.93,0,1,1-.931-.91A.929.929,0,0,1,255.345,127.251Z" transform="translate(-185.345 -126.341)"/>
      <rect id="Rectangle_6344" data-name="Rectangle 6344" class="cls-3" width="138.143" height="86.245" transform="translate(0 4.839)"/>
    </g>
    <path id="Path_2867" data-name="Path 2867" class="cls-4" d="M0,380.442a58.2,58.2,0,0,0,23.557,4.931H165.891a58.219,58.219,0,0,0,23.554-4.931Z" transform="translate(0 -191.569)"/>
    <rect id="Rectangle_6345" data-name="Rectangle 6345" class="cls-5" width="189.445" height="2.936" transform="translate(0 185.936)"/>
    <rect id="Rectangle_6346" data-name="Rectangle 6346" class="cls-4" width="32.883" height="1.466" transform="translate(78.278 185.936)"/>
    <rect id="Rectangle_6347" data-name="Rectangle 6347" class="cls-6" width="66.238" height="61.797" transform="translate(33.427 116.353)"/>
    <path id="Path_2868" data-name="Path 2868" class="cls-1" d="M170.191,239.473H149.518l-1.412,30.059h23.5Z" transform="translate(-93.305 -102.76)"/>
    <path id="Path_2869" data-name="Path 2869" class="cls-3" d="M160.256,304.469a7.459,7.459,0,0,0-1.66-2.854,7.384,7.384,0,0,0-2.712-1.869l-10.679-4.236a3.1,3.1,0,0,1-1.376-1.106,3,3,0,0,1-.518-1.683v-5.213h-11.68v5.213a3.007,3.007,0,0,1-1.894,2.789l-10.675,4.236a7.4,7.4,0,0,0-2.718,1.869,7.548,7.548,0,0,0-1.661,2.854l-2.109,6.705h49.794Z" transform="translate(-70.921 -133.021)"/>
    <path id="Path_2870" data-name="Path 2870" class="cls-7" d="M138.91,320.384a23.907,23.907,0,0,1-1.131,7.431h31.145a23.8,23.8,0,0,1-1.136-7.431,22.981,22.981,0,0,1,.6-5.329l-2.858-1.133-1.231,4.941a11.254,11.254,0,0,1-4,6.179,11.681,11.681,0,0,1-13.912,0,11.285,11.285,0,0,1-3.992-6.179l-1.23-4.941-2.86,1.133A23.016,23.016,0,0,1,138.91,320.384Z" transform="translate(-86.8 -149.663)"/>
    <path id="Path_2871" data-name="Path 2871" class="cls-3" d="M161.22,216.033c-6.387,0-10.948,4.664-10.948,14.528,0,8.347,4.909,15.4,10.948,15.4s10.942-7.051,10.942-15.4C172.163,220.7,167.608,216.033,161.22,216.033Z" transform="translate(-94.67 -87.993)"/>
    <g id="Group_981" data-name="Group 981" transform="translate(33.427 107.478)">
      <path id="Path_2872" data-name="Path 2872" class="cls-1" d="M172.078,217.462H152.439s-1.4,9.824.386,11.817c.072-.81.793-1.045,2.087-1.047,0,0,1.107-1.22,1.891-4.589a14.457,14.457,0,0,1,.328,4.688c1.392.1,3.113.236,5.127.246.511,0,1-.012,1.473-.021a2.319,2.319,0,0,0,.858-1.245,2.458,2.458,0,0,1,.417,1.182c4.2-.23,6.549-.717,6.681.786C173.475,227.286,172.078,217.462,172.078,217.462Z" transform="translate(-129.134 -196.371)"/>
      <path id="Path_2873" data-name="Path 2873" class="cls-1" d="M146.606,244.006a3.007,3.007,0,0,0,1.894-2.79V239h-3.292a67.319,67.319,0,0,1-.664-9.056c0-8.569.592-11.78,2.956-14.672a13.265,13.265,0,0,1,6.839-4.5,13.262,13.262,0,0,1,6.841,4.5c2.363,2.893,2.944,6.1,2.944,14.672a66.868,66.868,0,0,1-.653,9.056h-3.29v2.22a2.988,2.988,0,0,0,.518,1.683,3.092,3.092,0,0,0,1.376,1.106l6.108,2.426a5.072,5.072,0,0,0,1.138-3.208V239c0-7.109-.206-16.358-1.712-23.118-1.312-5.8-6.263-11.393-13.269-9.873-7-1.52-11.953,4.076-13.264,9.873-1.511,6.76-1.726,16.009-1.726,23.118v4.227a5.088,5.088,0,0,0,1.15,3.208Z" transform="translate(-121.217 -188.994)"/>
      <rect id="Rectangle_6348" data-name="Rectangle 6348" class="cls-1" width="66.238" height="8.878"/>
    </g>
    <g id="Group_982" data-name="Group 982" transform="translate(36.477 110.528)">
      <path id="Path_2874" data-name="Path 2874" class="cls-3" d="M101.357,170.091A1.387,1.387,0,1,1,99.97,168.7,1.387,1.387,0,0,1,101.357,170.091Z" transform="translate(-98.583 -168.704)"/>
      <path id="Path_2875" data-name="Path 2875" class="cls-3" d="M115.356,170.091a1.386,1.386,0,1,1-1.386-1.387A1.385,1.385,0,0,1,115.356,170.091Z" transform="translate(-107.404 -168.704)"/>
      <path id="Path_2876" data-name="Path 2876" class="cls-3" d="M129.361,170.091a1.387,1.387,0,1,1-1.387-1.387A1.387,1.387,0,0,1,129.361,170.091Z" transform="translate(-116.225 -168.704)"/>
    </g>
    <rect id="Rectangle_6349" data-name="Rectangle 6349" class="cls-7" width="48.555" height="17.756" transform="translate(107.453 107.478)"/>
    <g id="Group_983" data-name="Group 983" transform="translate(107.453 128.042)">
      <rect id="Rectangle_6350" data-name="Rectangle 6350" class="cls-4" width="48.555" height="2.809"/>
      <rect id="Rectangle_6351" data-name="Rectangle 6351" class="cls-4" width="48.555" height="2.812" transform="translate(0 5.617)"/>
      <rect id="Rectangle_6352" data-name="Rectangle 6352" class="cls-4" width="24.274" height="2.812" transform="translate(0 11.244)"/>
    </g>
    <circle id="Ellipse_527" data-name="Ellipse 527" class="cls-8" cx="3.915" cy="3.915" r="3.915" transform="translate(124.709 156.986)"/>
    <g id="Group_984" data-name="Group 984" transform="translate(128.626 160.908)">
      <path id="Path_2877" data-name="Path 2877" class="cls-3" d="M355.567,324.532l-7.937-19.669L367.3,312.8l-7.658,4.071Z" transform="translate(-347.63 -304.863)"/>
      <rect id="Rectangle_6353" data-name="Rectangle 6353" class="cls-3" width="3.132" height="9.262" transform="translate(18.896 16.676) rotate(134.988)"/>
    </g>
    <g id="Group_985" data-name="Group 985" transform="translate(115.173 147.45)">
      <rect id="Rectangle_6354" data-name="Rectangle 6354" class="cls-4" width="5.563" height="1.223" transform="matrix(-0.707, -0.707, 0.707, -0.707, 7.431, 8.313)"/>
      <path id="Path_2878" data-name="Path 2878" class="cls-4" d="M318.547,292.679l-5.144-2.128.469-1.127,5.147,2.127Z" transform="translate(-312.614 -281.679)"/>
      <rect id="Rectangle_6355" data-name="Rectangle 6355" class="cls-4" width="5.564" height="1.221" transform="translate(0 12.844)"/>
      <path id="Path_2879" data-name="Path 2879" class="cls-4" d="M313.888,314.749l-.465-1.134,5.143-2.13.468,1.128Z" transform="translate(-312.626 -295.578)"/>
      <rect id="Rectangle_6356" data-name="Rectangle 6356" class="cls-4" width="1.223" height="5.567" transform="translate(4.371 23.393) rotate(-134.939)"/>
      <rect id="Rectangle_6357" data-name="Rectangle 6357" class="cls-4" width="1.225" height="5.575" transform="matrix(-0.924, -0.382, 0.382, -0.924, 8.873, 26.117)"/>
      <rect id="Rectangle_6358" data-name="Rectangle 6358" class="cls-4" width="1.221" height="5.566" transform="translate(12.845 21.341)"/>
      <rect id="Rectangle_6359" data-name="Rectangle 6359" class="cls-4" width="5.573" height="1.221" transform="translate(21.332 12.844)"/>
      <rect id="Rectangle_6360" data-name="Rectangle 6360" class="cls-4" width="1.222" height="5.568" transform="translate(20.971 10.997) rotate(-112.47)"/>
      <rect id="Rectangle_6361" data-name="Rectangle 6361" class="cls-4" width="1.224" height="5.568" transform="matrix(-0.708, -0.706, 0.706, -0.708, 19.457, 8.312)"/>
      <rect id="Rectangle_6362" data-name="Rectangle 6362" class="cls-4" width="1.223" height="5.569" transform="translate(17.041 6.401) rotate(-157.492)"/>
      <rect id="Rectangle_6363" data-name="Rectangle 6363" class="cls-4" width="1.221" height="5.567" transform="translate(12.845)"/>
      <rect id="Rectangle_6364" data-name="Rectangle 6364" class="cls-4" width="5.567" height="1.225" transform="translate(9.871 6.401) rotate(-112.508)"/>
    </g>
  </g>
</svg>
