<svg xmlns="http://www.w3.org/2000/svg" viewBox="0 0 38 38">
  <defs>
    <style>
      .cls-1 {
        fill: none;
      }

      .cls-2, .cls-4 {
        fill: #fff;
      }

      .cls-3, .cls-4 {
        stroke: none;
      }
    </style>
  </defs>
  <g id="telegram_logo" data-name="telegram logo" transform="translate(-20 -5107)">
    <g id="Icon.BG" class="cls-1" transform="translate(20 5107)">
      <path class="cls-3" d="M19,0A19,19,0,1,1,0,19,19,19,0,0,1,19,0Z"/>
      <path class="cls-4" d="M 19 1 C 14.19202995300293 1 9.671829223632813 2.872329711914063 6.272079467773438 6.272079467773438 C 2.872329711914063 9.671829223632813 1 14.19202995300293 1 19 C 1 23.80797004699707 2.872329711914063 28.32817077636719 6.272079467773438 31.72792053222656 C 9.671829223632813 35.12767028808594 14.19202995300293 37 19 37 C 23.80797004699707 37 28.32817077636719 35.12767028808594 31.72792053222656 31.72792053222656 C 35.12767028808594 28.32817077636719 37 23.80797004699707 37 19 C 37 14.19202995300293 35.12767028808594 9.671829223632813 31.72792053222656 6.272079467773438 C 28.32817077636719 2.872329711914063 23.80797004699707 1 19 1 M 19 0 C 29.49341011047363 0 38 8.506589889526367 38 19 C 38 29.49341011047363 29.49341011047363 38 19 38 C 8.506589889526367 38 0 29.49341011047363 0 19 C 0 8.506589889526367 8.506589889526367 0 19 0 Z"/>
    </g>
    <g id="Group_1196" data-name="Group 1196" transform="translate(-59.928 5009)">
      <g id="Group_1195" data-name="Group 1195" transform="translate(89.192 107.827)">
        <path id="Path_3978" data-name="Path 3978" class="cls-2" d="M107.135,107.873l-9.771,4.548a.508.508,0,0,0,.429.921l6.027-2.806-2.93,2.372-6.724,5.444-3.678-1.609,5.154-2.4a.508.508,0,0,0-.429-.921l-5.548,2.583a.82.82,0,0,0,.017,1.495l4.107,1.8,1.2,7.217a.512.512,0,0,0,.926.195L99.33,121.5l6.452,3.011a.828.828,0,0,0,1.165-.695l.909-15.454c0-.014,0-.029,0-.043A.513.513,0,0,0,107.135,107.873ZM95.581,123.867,94.8,119.15l8.008-6.483-6.129,6.872a.513.513,0,0,0-.115.22Zm1.079-.146.743-3.12,1,.465Zm2.3-3.513-1.075-.5,5.29-5.931-.765,1.168Zm6.988,3.261-6.058-2.827,6.838-10.437Z" transform="translate(-89.192 -107.827)"/>
      </g>
    </g>
  </g>
</svg>
