<svg xmlns="http://www.w3.org/2000/svg" viewBox="0 0 109.38 100.953">
  <defs>
    <style>
      .cls-1 {
        fill: none;
        stroke: #707070;
      }

      .cls-2 {
        fill: #e18577;
      }

      .cls-3 {
        fill: #565656;
      }

      .cls-4 {
        fill: #707070;
      }

      .cls-5 {
        fill: #fff;
      }

      .cls-6 {
        fill: #f2f2f2;
      }
    </style>
  </defs>
  <g id="icon_calendar" data-name="icon calendar" transform="translate(0.5 -18.639)">
    <rect id="Rectangle_5519" data-name="Rectangle 5519" class="cls-1" width="92.75" height="54.222" transform="translate(0 36.752)"/>
    <g id="Group_804" data-name="Group 804" transform="translate(0 23.199)">
      <path id="Path_3965" data-name="Path 3965" class="cls-2" d="M0,0H92.75V13.553H0Z" transform="translate(0 0)"/>
      <rect id="Rectangle_5521" data-name="Rectangle 5521" class="cls-2" width="29.142" height="29.147" transform="translate(12.538 26.095)"/>
    </g>
    <g id="Group_805" data-name="Group 805" transform="translate(4.837 18.639)">
      <path id="Path_2074" data-name="Path 2074" class="cls-3" d="M234.527,191.924H195.994V162.777h38.533Zm-37.549-.985h36.571V163.762H196.978Z" transform="translate(-159.151 -132.125)"/>
      <rect id="Rectangle_5522" data-name="Rectangle 5522" class="cls-3" width="37.547" height="0.983" transform="translate(37.338 49.431)"/>
      <rect id="Rectangle_5523" data-name="Rectangle 5523" class="cls-3" width="37.547" height="0.984" transform="translate(37.338 40.035)"/>
      <rect id="Rectangle_5524" data-name="Rectangle 5524" class="cls-3" width="0.987" height="28.162" transform="translate(65.004 31.145)"/>
      <rect id="Rectangle_5525" data-name="Rectangle 5525" class="cls-3" width="0.984" height="28.162" transform="translate(55.619 31.145)"/>
      <rect id="Rectangle_5526" data-name="Rectangle 5526" class="cls-3" width="0.98" height="28.162" transform="translate(46.234 31.145)"/>
      <path id="Path_2075" data-name="Path 2075" class="cls-3" d="M27.3,27.761V26.094a2.894,2.894,0,1,0-2.89-2.895H22.745A4.558,4.558,0,1,1,27.3,27.761Z" transform="translate(-22.745 -18.639)"/>
      <path id="Path_2076" data-name="Path 2076" class="cls-3" d="M96.84,27.761V26.094A2.894,2.894,0,1,0,93.946,23.2H92.28a4.562,4.562,0,1,1,4.56,4.562Z" transform="translate(-77.493 -18.639)"/>
      <path id="Path_2077" data-name="Path 2077" class="cls-3" d="M166.411,27.761V26.094a2.894,2.894,0,1,0-2.893-2.895h-1.667a4.559,4.559,0,1,1,4.56,4.562Z" transform="translate(-132.269 -18.639)"/>
      <path id="Path_2078" data-name="Path 2078" class="cls-3" d="M235.976,27.761V26.094a2.894,2.894,0,1,0-2.9-2.895h-1.661a4.559,4.559,0,1,1,4.558,4.562Z" transform="translate(-187.042 -18.639)"/>
      <path id="Path_2079" data-name="Path 2079" class="cls-3" d="M305.521,27.761V26.094a2.894,2.894,0,1,0-2.895-2.895H300.96a4.561,4.561,0,1,1,4.561,4.562Z" transform="translate(-241.796 -18.639)"/>
      <path id="Path_2080" data-name="Path 2080" class="cls-3" d="M375.084,27.761V26.094a2.894,2.894,0,1,0-2.9-2.895h-1.666a4.559,4.559,0,1,1,4.563,4.562Z" transform="translate(-296.564 -18.639)"/>
      <path id="Path_2081" data-name="Path 2081" class="cls-4" d="M332.837,290.006a24.2,24.2,0,1,1-24.2-24.2A24.194,24.194,0,0,1,332.837,290.006Z" transform="translate(-228.793 -213.247)"/>
    </g>
    <path id="Path_2082" data-name="Path 2082" class="cls-5" d="M344.379,305.814a19.922,19.922,0,1,1-19.923-19.926A19.921,19.921,0,0,1,344.379,305.814Z" transform="translate(-239.773 -210.417)"/>
    <path id="Path_2083" data-name="Path 2083" class="cls-6" d="M398.218,399.5a19.921,19.921,0,0,0,19.923-19.925v0H398.218V399.5Z" transform="translate(-313.534 -284.181)"/>
    <g id="Group_806" data-name="Group 806" transform="translate(66.794 77.502)">
      <path id="Path_2084" data-name="Path 2084" class="cls-3" d="M396.892,295.932a.495.495,0,1,1-.5-.493A.5.5,0,0,1,396.892,295.932Z" transform="translate(-378.504 -295.439)"/>
      <path id="Path_2085" data-name="Path 2085" class="cls-3" d="M355.92,306.65a.5.5,0,0,1-.184.677.494.494,0,0,1-.495-.855A.5.5,0,0,1,355.92,306.65Z" transform="translate(-346.298 -304.073)"/>
      <path id="Path_2086" data-name="Path 2086" class="cls-3" d="M325.794,336.412a.494.494,0,1,1-.5.854.489.489,0,0,1-.178-.669A.494.494,0,0,1,325.794,336.412Z" transform="translate(-322.722 -327.647)"/>
      <path id="Path_2087" data-name="Path 2087" class="cls-3" d="M314.584,377.26a.493.493,0,1,1-.493.5A.494.494,0,0,1,314.584,377.26Z" transform="translate(-314.091 -359.86)"/>
      <path id="Path_2088" data-name="Path 2088" class="cls-3" d="M325.3,418.231a.5.5,0,0,1,.679.182.494.494,0,0,1-.855.495A.5.5,0,0,1,325.3,418.231Z" transform="translate(-322.724 -392.066)"/>
      <path id="Path_2089" data-name="Path 2089" class="cls-3" d="M355.065,448.362a.494.494,0,1,1,.183.672A.495.495,0,0,1,355.065,448.362Z" transform="translate(-346.3 -415.646)"/>
      <path id="Path_2090" data-name="Path 2090" class="cls-3" d="M395.9,459.576a.495.495,0,1,1,.5.492A.494.494,0,0,1,395.9,459.576Z" transform="translate(-378.502 -424.283)"/>
      <path id="Path_2091" data-name="Path 2091" class="cls-3" d="M436.891,448.853a.492.492,0,1,1,.852-.493.492.492,0,0,1-.852.493Z" transform="translate(-410.723 -415.645)"/>
      <path id="Path_2092" data-name="Path 2092" class="cls-3" d="M467.014,419.083a.493.493,0,1,1,.676-.182A.493.493,0,0,1,467.014,419.083Z" transform="translate(-434.3 -392.063)"/>
      <path id="Path_2093" data-name="Path 2093" class="cls-3" d="M478.222,378.248a.493.493,0,1,1,0-.986.493.493,0,0,1,0,.986Z" transform="translate(-442.929 -359.862)"/>
      <path id="Path_2094" data-name="Path 2094" class="cls-3" d="M467.5,337.269a.5.5,0,0,1-.676-.183.494.494,0,1,1,.676.183Z" transform="translate(-434.294 -327.648)"/>
      <path id="Path_2095" data-name="Path 2095" class="cls-3" d="M437.743,307.137a.492.492,0,1,1-.18-.675A.493.493,0,0,1,437.743,307.137Z" transform="translate(-410.723 -304.066)"/>
      <rect id="Rectangle_5527" data-name="Rectangle 5527" class="cls-3" width="1.194" height="9.658" transform="translate(17.3 17.897)"/>
      <rect id="Rectangle_5528" data-name="Rectangle 5528" class="cls-3" width="11.952" height="0.799" transform="translate(18.884 17.494)"/>
      <path id="Path_2096" data-name="Path 2096" class="cls-3" d="M392.225,371.354A2.223,2.223,0,1,1,390,369.131,2.224,2.224,0,0,1,392.225,371.354Z" transform="translate(-372.109 -353.46)"/>
    </g>
    <g id="Group_807" data-name="Group 807" transform="translate(75.366 86.076)">
      <path id="Path_2097" data-name="Path 2097" class="cls-2" d="M366.008,347.023l-.337.339-11.27-11.27.335-.338Z" transform="translate(-354.401 -335.754)"/>
      <path id="Path_2098" data-name="Path 2098" class="cls-2" d="M394.21,374.1a1.484,1.484,0,1,1-1.482-1.482A1.483,1.483,0,0,1,394.21,374.1Z" transform="translate(-383.408 -364.775)"/>
    </g>
    <path id="Path_2099" data-name="Path 2099" class="cls-3" d="M396.229,376.841a.741.741,0,1,1-.744-.741A.743.743,0,0,1,396.229,376.841Z" transform="translate(-310.801 -281.444)"/>
  </g>
</svg>
