<svg id="Icon_masters" data-name="Icon masters" xmlns="http://www.w3.org/2000/svg" viewBox="0 0 38 38"><defs><style>.cls-1,.cls-3{fill:none;}.cls-2{fill:#fff;}.cls-3{stroke:#fff;}</style></defs><title>icon-master</title><g id="Icon.BG"><path class="cls-1" d="M19,0A19,19,0,1,1,0,19,19,19,0,0,1,19,0Z"/><path class="cls-2" d="M19,1A18,18,0,1,0,31.73,6.27h0A17.88,17.88,0,0,0,19,1m0-1A19,19,0,1,1,0,19,19,19,0,0,1,19,0Z"/></g><path class="cls-3" d="M22.58,17.9A2.75,2.75,0,0,0,25.09,15c0-2.29-1.09-3-2.51-3s-2.52.69-2.52,2.94A2.76,2.76,0,0,0,22.58,17.9Z"/><path class="cls-3" d="M28.12,22.22l-1.26-2.85a.67.67,0,0,0-.29-.31l-2-1a.11.11,0,0,0-.13,0,3.09,3.09,0,0,1-3.78,0,.12.12,0,0,0-.14,0l-2,1a.7.7,0,0,0-.28.31s0,.33,0,.36L20.65,21c.15.09.5.21.57.37L22,23.12h5.57a.64.64,0,0,0,.63-.64A.57.57,0,0,0,28.12,22.22Z"/><path class="cls-3" d="M15.78,19.56A3.39,3.39,0,0,0,18.86,16c0-2.77-1.38-3.61-3.08-3.61s-3.09.84-3.09,3.61A3.39,3.39,0,0,0,15.78,19.56Z"/><path class="cls-3" d="M20.79,21l-2.71-1.22s-3.29,1.05-4.66,0a.15.15,0,0,0-.16,0L10.88,21a.76.76,0,0,0-.36.37L9,24.86a.77.77,0,0,0,.39,1,.88.88,0,0,0,.32.07h12.2a.78.78,0,0,0,.78-.78.88.88,0,0,0-.07-.32l0,0L22,23.12S21.49,21.28,20.79,21Z"/></svg>