<svg xmlns="http://www.w3.org/2000/svg" viewBox="0 0 118.75 101.962">
  <defs>
    <style>
      .cls-1, .cls-3, .cls-6 {
        fill: #fff;
      }

      .cls-1, .cls-6 {
        stroke: #707070;
      }

      .cls-2 {
        fill: #707070;
      }

      .cls-4 {
        fill: #f2f2f2;
      }

      .cls-5 {
        fill: #e18577;
      }

      .cls-6 {
        stroke-width: 0.5px;
      }
    </style>
  </defs>
  <g id="icon_online" data-name="icon online" transform="translate(0.5 -55.931)">
    <path id="Path_2389" data-name="Path 2389" class="cls-1" d="M6.991,224.925a7,7,0,0,0,0,14,6.993,6.993,0,0,0,0,13.985H7a6.994,6.994,0,1,0,0,13.988H7a7,7,0,1,0,0,13.992H90.061v-55.96Z" transform="translate(0 -125.873)"/>
    <path id="Path_2390" data-name="Path 2390" class="cls-1" d="M34.843,157.393a7.226,7.226,0,0,1-7.206-7.2V63.637a7.232,7.232,0,0,1,7.206-7.206H76.674a7.222,7.222,0,0,1,7.2,7.206v86.557a7.215,7.215,0,0,1-7.2,7.2Z" transform="translate(-20.646 0)"/>
    <g id="Group_910" data-name="Group 910" transform="translate(27.578 63.399)">
      <path id="Path_2391" data-name="Path 2391" class="cls-2" d="M126.628,418.9a1.715,1.715,0,0,1-1.715,1.714h-9.036a1.726,1.726,0,0,1-1.723-1.714v-.727a1.736,1.736,0,0,1,1.723-1.726h9.036a1.725,1.725,0,0,1,1.715,1.726Z" transform="translate(-112.856 -332.351)"/>
      <path id="Path_2392" data-name="Path 2392" class="cls-2" d="M124.1,84.972a.7.7,0,0,1-.7.7H109.727a.7.7,0,0,1-.7-.7v-.295a.707.707,0,0,1,.7-.7H123.4a.7.7,0,0,1,.7.7v.295Z" transform="translate(-109.023 -83.977)"/>
    </g>
    <rect id="Rectangle_6132" data-name="Rectangle 6132" class="cls-3" width="48.075" height="69.716" transform="translate(11.08 72.067)"/>
    <rect id="Rectangle_6133" data-name="Rectangle 6133" class="cls-4" width="42.493" height="64.134" transform="translate(13.871 74.851)"/>
    <path id="Path_2393" data-name="Path 2393" class="cls-1" d="M230.709,120.252a7,7,0,0,0-13.992,0A35.285,35.285,0,0,0,251.96,155.5v-14A21.275,21.275,0,0,1,230.709,120.252Z" transform="translate(-161.898 -42.453)"/>
    <path id="Rectangle_6152" data-name="Rectangle 6152" class="cls-5" d="M0,0H27.314a2,2,0,0,1,2,2V58.722a2,2,0,0,1-2,2H0a0,0,0,0,1,0,0V0A0,0,0,0,1,0,0Z" transform="translate(88.936 96.674)"/>
    <path id="Path_2394" data-name="Path 2394" class="cls-3" d="M383.742,411.393a3.353,3.353,0,1,1-3.353-3.35A3.352,3.352,0,0,1,383.742,411.393Z" transform="translate(-281.664 -262.671)"/>
    <g id="Group_913" data-name="Group 913" transform="translate(0 99.052)">
      <path id="Path_2395" data-name="Path 2395" class="cls-6" d="M13.991,231.922a7,7,0,1,1-7-7A7,7,0,0,1,13.991,231.922Z" transform="translate(0 -224.926)"/>
      <path id="Path_2396" data-name="Path 2396" class="cls-6" d="M13.991,287.243a7,7,0,1,1-7-6.991A7,7,0,0,1,13.991,287.243Z" transform="translate(0 -266.257)"/>
      <path id="Path_2397" data-name="Path 2397" class="cls-6" d="M13.991,342.554a7,7,0,1,1-7-7A7,7,0,0,1,13.991,342.554Z" transform="translate(0 -307.572)"/>
      <path id="Path_2398" data-name="Path 2398" class="cls-6" d="M13.991,397.867a7,7,0,1,1-7-6.995A7,7,0,0,1,13.991,397.867Z" transform="translate(0 -348.895)"/>
    </g>
    <rect id="Rectangle_7183" data-name="Rectangle 7183" class="cls-5" width="40.046" height="2.225" rx="1.112" transform="translate(18.328 114.269) rotate(-41)"/>
    <rect id="Rectangle_7184" data-name="Rectangle 7184" class="cls-5" width="31.889" height="2.225" rx="1.112" transform="translate(26.136 123.956) rotate(-41)"/>
  </g>
</svg>
