<svg xmlns="http://www.w3.org/2000/svg" viewBox="0 0 38 38">
  <defs>
    <style>
      .cls-1 {
        fill: none;
      }

      .cls-2 {
        fill: #fffbfb;
      }

      .cls-3, .cls-4 {
        stroke: none;
      }

      .cls-4 {
        fill: #fff;
      }
    </style>
  </defs>
  <g id="instagram_logo" data-name="instagram logo" transform="translate(-20 -5026)">
    <g id="Icon.BG" class="cls-1" transform="translate(20 5026)">
      <path class="cls-3" d="M19,0A19,19,0,1,1,0,19,19,19,0,0,1,19,0Z"/>
      <path class="cls-4" d="M 19 1 C 14.19202995300293 1 9.671829223632813 2.872329711914063 6.272079467773438 6.272079467773438 C 2.872329711914063 9.671829223632813 1 14.19202995300293 1 19 C 1 23.80797004699707 2.872329711914063 28.32817077636719 6.272079467773438 31.72792053222656 C 9.671829223632813 35.12767028808594 14.19202995300293 37 19 37 C 23.80797004699707 37 28.32817077636719 35.12767028808594 31.72792053222656 31.72792053222656 C 35.12767028808594 28.32817077636719 37 23.80797004699707 37 19 C 37 14.19202995300293 35.12767028808594 9.671829223632813 31.72792053222656 6.272079467773438 C 28.32817077636719 2.872329711914063 23.80797004699707 1 19 1 M 19 0 C 29.49341011047363 0 38 8.506589889526367 38 19 C 38 29.49341011047363 29.49341011047363 38 19 38 C 8.506589889526367 38 0 29.49341011047363 0 19 C 0 8.506589889526367 8.506589889526367 0 19 0 Z"/>
    </g>
    <g id="instagram-logo_1_" data-name="instagram-logo (1)" transform="translate(29.264 5036)">
      <path id="Path_3968" data-name="Path 3968" class="cls-2" d="M13.519,0H5.153A5.159,5.159,0,0,0,0,5.153v8.367a5.159,5.159,0,0,0,5.153,5.153h8.367a5.159,5.159,0,0,0,5.153-5.153V5.153A5.159,5.159,0,0,0,13.519,0Zm3.5,13.519a3.5,3.5,0,0,1-3.5,3.5H5.153a3.5,3.5,0,0,1-3.5-3.5V5.153a3.5,3.5,0,0,1,3.5-3.5h8.367a3.5,3.5,0,0,1,3.5,3.5v8.367Z"/>
      <path id="Path_3969" data-name="Path 3969" class="cls-2" d="M45.779,40.97a4.811,4.811,0,1,0,4.811,4.811A4.817,4.817,0,0,0,45.779,40.97Zm0,7.966a3.155,3.155,0,1,1,3.155-3.154A3.158,3.158,0,0,1,45.779,48.936Z" transform="translate(-36.443 -36.445)"/>
      <path id="Path_3970" data-name="Path 3970" class="cls-2" d="M120.136,28.251a1.214,1.214,0,1,0,.859.356A1.22,1.22,0,0,0,120.136,28.251Z" transform="translate(-105.787 -25.131)"/>
    </g>
  </g>
</svg>
