<svg xmlns="http://www.w3.org/2000/svg" viewBox="0 0 24.746 43.631">
    <defs>
        <style>
            .cls-1,.cls-3{fill:#fff}.cls-1,.cls-4{stroke:#e18577}.cls-2{fill:#e18577}.cls-4{fill:none}
        </style>
    </defs>
    <g id="icon_online" data-name="icon online" transform="translate(-6.491 -55.931)">
        <path id="Path_2390" data-name="Path 2390" class="cls-1" d="M30.68 99.062a3.051 3.051 0 0 1-3.043-3.04V59.474a3.054 3.054 0 0 1 3.043-3.043h17.663a3.05 3.05 0 0 1 3.04 3.043v36.549a3.047 3.047 0 0 1-3.04 3.04z" transform="translate(-20.646)"/>
        <g id="Group_910" data-name="Group 910" transform="translate(15.684 59.373)">
            <path id="Path_2391" data-name="Path 2391" class="cls-2" d="M119.421 417.488a.724.724 0 0 1-.724.724h-3.815a.729.729 0 0 1-.728-.724v-.307a.733.733 0 0 1 .728-.729h3.818a.728.728 0 0 1 .724.729z" transform="translate(-113.606 -380.94)"/>
            <path id="Path_2392" data-name="Path 2392" class="cls-2" d="M115.388 84.4a.3.3 0 0 1-.294.3h-5.774a.3.3 0 0 1-.3-.3v-.124a.3.3 0 0 1 .3-.3h5.773a.3.3 0 0 1 .294.3v.124z" transform="translate(-109.023 -83.977)"/>
        </g>
        <path id="Rectangle_6132" data-name="Rectangle 6132" class="cls-3" transform="translate(8.717 63.033)" d="M0 0h20.3v29.438H0z"/>
        <path id="Rectangle_6133" data-name="Rectangle 6133" class="cls-4" transform="translate(10.896 66.209)" d="M0 0h15.943v23.081H0z"/>
    </g>
</svg>
