<svg xmlns="http://www.w3.org/2000/svg" viewBox="0 0 109.324 124.03">
    <defs>
        <style>
            .cls-1{fill:#cccbca}.cls-2{fill:#e6e5e5}.cls-3{fill:#e18577}.cls-4{fill:#f2f2f2}.cls-5{fill:#707070}.cls-6{fill:#fff}
        </style>
    </defs>
    <g id="icon_clients" data-name="icon clients" transform="translate(-30.355)">
        <g id="Group_1027" data-name="Group 1027" transform="translate(36.535 6.03)">
            <path id="Rectangle_6470" data-name="Rectangle 6470" class="cls-1" transform="translate(47.533 53.61)" d="M0 0h1.903v2.376H0z"/>
            <path id="Path_2986" data-name="Path 2986" class="cls-1" d="M253.979 99.067h-1.9V94.51h1.9zm0-9.116h-1.9v-4.557h1.9zm0-9.114h-1.9v-4.559h1.9zm0-9.114h-1.9v-4.56h1.9zm0-9.116h-1.9v-4.559h1.9z" transform="translate(-204.545 -50.016)"/>
            <path id="Rectangle_6471" data-name="Rectangle 6471" class="cls-1" transform="translate(47.533 1.099)" d="M0 0h1.903v2.376H0z"/>
            <path id="Rectangle_6472" data-name="Rectangle 6472" class="cls-1" transform="translate(47.533 55.986)" d="M0 0h1.903v2.379H0z"/>
            <path id="Path_2987" data-name="Path 2987" class="cls-1" d="M253.973 325.64h-1.9v-4.557h1.9zm0-9.114h-1.9v-4.558h1.9zm0-9.114h-1.9v-4.559h1.9zm0-9.116h-1.9v-4.556h1.9zm0-9.117h-1.9v-4.556h1.9z" transform="translate(-204.54 -221.704)"/>
            <path id="Rectangle_6473" data-name="Rectangle 6473" class="cls-1" transform="translate(47.533 108.494)" d="M0 0h1.903v2.375H0z"/>
            <path id="Rectangle_6474" data-name="Rectangle 6474" class="cls-1" transform="rotate(-120 25.032 41.716)" d="M0 0h1.902v2.378H0z"/>
            <path id="Path_2988" data-name="Path 2988" class="cls-1" d="M83.57 289.075l-.951-1.647 3.947-2.28.951 1.648zm7.894-4.558l-.951-1.649 3.947-2.276.951 1.647zm7.894-4.557l-.951-1.648 3.946-2.28.952 1.648zm7.895-4.558l-.952-1.645 3.947-2.28.95 1.648zm7.89-4.558l-.948-1.647 3.947-2.276.948 1.645z" transform="translate(-76.138 -208.29)"/>
            <path id="Path_2989" data-name="Path 2989" class="cls-1" d="M246.5 251.717l-.948-1.648.629-.365-.629-.363.948-1.648 3.487 2.012z" transform="translate(-199.6 -193.719)"/>
            <path id="Path_2990" data-name="Path 2990" class="cls-1" d="M118.142 175.78l-3.947-2.277.948-1.647 3.947 2.28zm-7.895-4.556l-3.947-2.28.952-1.645 3.946 2.276zm-7.894-4.557l-3.946-2.28.951-1.648 3.947 2.28zm-7.893-4.559l-3.947-2.276.951-1.648 3.947 2.279zm-7.894-4.556l-3.947-2.28.951-1.647 3.947 2.279z" transform="translate(-76.138 -122.44)"/>
            <path id="Rectangle_6475" data-name="Rectangle 6475" class="cls-1" transform="rotate(-150.007 5.361 14.937)" d="M0 0h2.378v1.902H0z"/>
            <path id="Rectangle_6476" data-name="Rectangle 6476" class="cls-1" transform="rotate(-120 56.032 -11.98)" d="M0 0h1.901v2.377H0z"/>
            <path id="Path_2991" data-name="Path 2991" class="cls-1" d="M279.785 175.78l-.949-1.645 3.947-2.28.949 1.647zm7.893-4.556l-.948-1.648 3.945-2.276.95 1.645zm7.894-4.557l-.951-1.648 3.947-2.28.951 1.648zm7.893-4.559l-.951-1.646 3.947-2.279.951 1.649zm7.894-4.556l-.951-1.648 3.947-2.279.951 1.647z" transform="translate(-224.822 -122.44)"/>
            <path id="Path_2992" data-name="Path 2992" class="cls-1" d="M251.64 251.717l-3.486-2.014 3.486-2.012.949 1.648-.631.363.631.365z" transform="translate(-201.573 -193.719)"/>
            <path id="Path_2993" data-name="Path 2993" class="cls-1" d="M314.356 289.075l-3.947-2.28.951-1.648 3.947 2.28zm-7.894-4.558l-3.947-2.278.951-1.647 3.947 2.276zm-7.894-4.557l-3.947-2.28.951-1.648 3.947 2.28zm-7.892-4.558l-3.945-2.278.948-1.648 3.947 2.28zm-7.892-4.556l-3.947-2.28.949-1.645 3.947 2.277z" transform="translate(-224.822 -208.29)"/>
            <path id="Rectangle_6477" data-name="Rectangle 6477" class="cls-1" transform="rotate(-149.961 59.073 29.309)" d="M0 0h2.377v1.901H0z"/>
            <path id="Path_2994" data-name="Path 2994" class="cls-1" d="M248.074 477.377l-2.534-1.463.949-1.646 1.585.913 1.583-.913.948 1.646z" transform="translate(-199.592 -365.408)"/>
            <path id="Path_2995" data-name="Path 2995" class="cls-1" d="M118.141 402.354l-3.947-2.28.949-1.648 3.946 2.28zm-7.893-4.558l-3.947-2.277.952-1.647 3.946 2.278zm-7.894-4.557l-3.946-2.28.951-1.648 3.947 2.28zm-7.893-4.558l-3.947-2.281.951-1.648 3.947 2.279zm-7.894-4.558l-3.947-2.278.951-1.647 3.947 2.277z" transform="translate(-76.138 -294.126)"/>
            <path id="Path_2996" data-name="Path 2996" class="cls-1" d="M58.407 363.863l-2.532-1.463v-2.923h1.9v1.823l1.583.914z" transform="translate(-55.873 -278.423)"/>
            <path id="Path_2997" data-name="Path 2997" class="cls-1" d="M57.769 212.359h-1.9V207.8h1.9zm0-9.113h-1.9v-4.558h1.9zm-1.9-9.114v-4.56h1.9v4.56zm1.9-9.116h-1.9v-4.557h1.9zm0-9.116h-1.9v-4.556h1.9z" transform="translate(-55.867 -135.867)"/>
            <path id="Path_2998" data-name="Path 2998" class="cls-1" d="M57.767 138.8h-1.9v-2.923l2.533-1.467.951 1.648-1.585.912z" transform="translate(-55.867 -107.879)"/>
            <path id="Path_2999" data-name="Path 2999" class="cls-1" d="M83.57 62.491l-.951-1.647 3.947-2.278.951 1.648zm7.894-4.557l-.951-1.648 3.947-2.279.951 1.647zm7.894-4.558l-.951-1.647 3.946-2.278.952 1.648zm7.895-4.558l-.952-1.647 3.947-2.279.95 1.647zm7.89-4.557l-.948-1.648 3.947-2.28.948 1.648z" transform="translate(-76.138 -36.592)"/>
            <path id="Path_3000" data-name="Path 3000" class="cls-1" d="M246.5 28l-.948-1.647 2.531-1.462 2.532 1.462-.949 1.647-1.585-.913z" transform="translate(-199.6 -24.891)"/>
            <path id="Path_3001" data-name="Path 3001" class="cls-1" d="M314.352 62.491l-3.952-2.277.951-1.648 3.947 2.278zm-7.894-4.558l-3.945-2.28.951-1.645 3.945 2.279zm-7.893-4.557l-3.947-2.276.951-1.648 3.947 2.28zm-7.894-4.558l-3.946-2.279.949-1.647 3.947 2.279zm-7.892-4.557l-3.946-2.28.948-1.648 3.947 2.28z" transform="translate(-224.82 -36.592)"/>
            <path id="Path_3002" data-name="Path 3002" class="cls-1" d="M445.239 138.8h-1.9v-1.83l-1.582-.912.951-1.648 2.532 1.465z" transform="translate(-348.275 -107.879)"/>
            <path id="Path_3003" data-name="Path 3003" class="cls-1" d="M450.189 212.359h-1.9V207.8h1.9zm0-9.113h-1.9v-4.558h1.9zm0-9.114h-1.9v-4.56h1.9zm0-9.116h-1.9v-4.557h1.9zm0-9.116h-1.9v-4.556h1.9z" transform="translate(-353.226 -135.867)"/>
            <path id="Path_3004" data-name="Path 3004" class="cls-1" d="M442.707 363.863l-.951-1.648 1.582-.914v-1.826h1.9v2.925z" transform="translate(-348.275 -278.423)"/>
            <path id="Path_3005" data-name="Path 3005" class="cls-1" d="M279.781 402.354l-.948-1.647 3.946-2.28.949 1.648zm7.894-4.558l-.949-1.647 3.946-2.28.951 1.647zm7.894-4.557l-.951-1.648 3.947-2.28.951 1.648zm7.895-4.558l-.951-1.647 3.947-2.28.951 1.648zm7.894-4.558l-.951-1.648 3.947-2.277.951 1.647z" transform="translate(-224.82 -294.126)"/>
        </g>
        <path id="Path_3006" data-name="Path 3006" class="cls-2" d="M43.662 116.842a7.13 7.13 0 1 1-9.738-2.611 7.128 7.128 0 0 1 9.738 2.611z" transform="translate(-.002 -85.834)"/>
        <path id="Path_3007" data-name="Path 3007" class="cls-3" d="M239.868 3.565a7.13 7.13 0 1 1-9.739-2.609 7.125 7.125 0 0 1 9.739 2.609z" transform="translate(-148.677)"/>
        <path id="Path_3008" data-name="Path 3008" class="cls-2" d="M436.082 116.84a7.129 7.129 0 1 1-9.74-2.611 7.128 7.128 0 0 1 9.74 2.611z" transform="translate(-297.359 -85.832)"/>
        <path id="Path_3009" data-name="Path 3009" class="cls-3" d="M436.081 343.405a7.129 7.129 0 1 1-9.739-2.609 7.131 7.131 0 0 1 9.739 2.609z" transform="translate(-297.358 -257.514)"/>
        <path id="Path_3010" data-name="Path 3010" class="cls-2" d="M239.869 456.694a7.13 7.13 0 1 1-9.74-2.607 7.129 7.129 0 0 1 9.74 2.607z" transform="translate(-148.677 -343.361)"/>
        <path id="Path_3011" data-name="Path 3011" class="cls-3" d="M43.66 343.408a7.13 7.13 0 1 1-9.739-2.607 7.133 7.133 0 0 1 9.739 2.607z" transform="translate(0 -257.517)"/>
        <g id="Group_1028" data-name="Group 1028" transform="translate(63.727 40.726)">
            <circle id="SVGID_3_" class="cls-4" cx="21.29" cy="21.29" r="21.29"/>
        </g>
        <g id="Group_1032" data-name="Group 1032" transform="translate(62.418 45.937)">
            <g id="Group_1031" data-name="Group 1031">
                <g id="Group_1191" data-name="Group 1191" transform="translate(22.715 10.059)">
                    <g id="Group_1031-2" data-name="Group 1031">
                        <path id="Path_3012" data-name="Path 3012" class="cls-5" d="M234.668 225.49h-8.634l-.587 12.558h9.816z" transform="translate(-219.213 -220.28)"/>
                        <g id="Group_1029" data-name="Group 1029" transform="translate(0 1.591)">
                            <path id="Path_3013" data-name="Path 3013" class="cls-6" d="M188.012 279.587l-.021.067-.587 1.868-.774 2.449h22.27l-.773-2.449-.85-2.682a3.128 3.128 0 0 0-1.825-1.973L201 275.095a1.273 1.273 0 0 1-.573-.458 1.257 1.257 0 0 1-.216-.7v-2.173h-4.879v2.173a1.248 1.248 0 0 1-.788 1.163l-4.461 1.771a3.148 3.148 0 0 0-1.83 1.973l-.236.748z" transform="translate(-186.627 -260.711)"/>
                            <path id="Path_3014" data-name="Path 3014" class="cls-6" d="M232.12 202.949c-2.672 0-4.57 1.945-4.57 6.067 0 3.487 2.045 6.43 4.57 6.43s4.569-2.943 4.569-6.43c0-4.122-1.902-6.067-4.569-6.067z" transform="translate(-220.979 -202.949)"/>
                        </g>
                        <g id="Group_1030" data-name="Group 1030" transform="translate(3.867)">
                            <path id="Path_3015" data-name="Path 3015" class="cls-5" d="M237.527 204.324h-8.2s-.583 4.1.163 4.934c.032-.339.331-.434.873-.437a4.611 4.611 0 0 0 .789-1.916 6.081 6.081 0 0 1 .134 1.955c.584.04 1.3.1 2.145.1.214 0 .42-.005.614-.01a.942.942 0 0 0 .358-.521 1.013 1.013 0 0 1 .176.492c1.756-.094 2.732-.3 2.789.331.743-.829.159-4.928.159-4.928z" transform="translate(-226.153 -202.512)"/>
                            <path id="Path_3016" data-name="Path 3016" class="cls-5" d="M220.046 209.016a1.247 1.247 0 0 0 .788-1.163v-.927h-1.374a28.065 28.065 0 0 1-.278-3.782c0-3.578.248-4.919 1.237-6.127a5.528 5.528 0 0 1 2.856-1.879 5.526 5.526 0 0 1 2.855 1.879c.99 1.207 1.231 2.548 1.231 6.127a27.655 27.655 0 0 1-.275 3.782h-1.372v.927a1.246 1.246 0 0 0 .789 1.163l2.555 1.017a2.145 2.145 0 0 0 .475-1.342v-1.766a49.33 49.33 0 0 0-.716-9.654c-.548-2.421-2.616-4.76-5.541-4.125-2.927-.635-4.994 1.7-5.542 4.125a48.829 48.829 0 0 0-.721 9.654v1.766a2.126 2.126 0 0 0 .482 1.342z" transform="translate(-216 -193.042)"/>
                            <path id="Path_3017" data-name="Path 3017" class="cls-3" d="M210.708 305.3h14.541a14.054 14.054 0 0 1-1.1-5.7 16.843 16.843 0 0 1 .116-1.958l-1.194-.475-.515 2.064a4.667 4.667 0 0 1-1.667 2.579 4.867 4.867 0 0 1-5.812 0 4.679 4.679 0 0 1-1.666-2.579l-.516-2.064-1.19.475h-.011a16.921 16.921 0 0 1 .116 1.958 14.06 14.06 0 0 1-1.102 5.7z" transform="translate(-210.708 -280.444)"/>
                        </g>
                    </g>
                </g>
                <path id="Path_3012-2" data-name="Path 3012" class="cls-5" d="M239.359 225.49h-13.027l-.886 18.947h14.81z" transform="translate(-216.042 -217.63)"/>
                <g id="Group_1029-2" data-name="Group 1029" transform="translate(0 2.4)">
                    <path id="Path_3013-2" data-name="Path 3013" class="cls-6" d="M188.716 283.57l-.032.1-.886 2.819-1.168 3.695h33.61l-1.166-3.7-1.282-4.047a4.72 4.72 0 0 0-2.753-2.977l-6.731-2.672a1.922 1.922 0 0 1-.865-.691 1.9 1.9 0 0 1-.326-1.064v-3.278h-7.362v3.278a1.882 1.882 0 0 1-1.188 1.755l-6.731 2.672a4.749 4.749 0 0 0-2.762 2.977l-.356 1.128z" transform="translate(-186.627 -255.09)"/>
                    <path id="Path_3014-2" data-name="Path 3014" class="cls-6" d="M234.446 202.949c-4.031 0-6.9 2.934-6.9 9.153 0 5.261 3.086 9.7 6.9 9.7s6.893-4.44 6.893-9.7c0-6.219-2.87-9.153-6.893-9.153z" transform="translate(-217.636 -202.949)"/>
                </g>
                <g id="Group_1030-2" data-name="Group 1030" transform="translate(5.834)">
                    <path id="Path_3015-2" data-name="Path 3015" class="cls-5" d="M241.81 204.324h-12.376s-.879 6.185.246 7.444c.048-.512.5-.656 1.318-.659a6.956 6.956 0 0 0 1.19-2.891 9.176 9.176 0 0 1 .2 2.949c.882.061 1.965.152 3.236.157.322 0 .634-.007.926-.014a1.422 1.422 0 0 0 .539-.786 1.529 1.529 0 0 1 .266.742c2.649-.142 4.122-.451 4.208.5 1.129-1.257.247-7.442.247-7.442z" transform="translate(-224.65 -201.591)"/>
                    <path id="Path_3016-2" data-name="Path 3016" class="cls-5" d="M221.59 217.143a1.882 1.882 0 0 0 1.188-1.755v-1.4h-2.073a42.342 42.342 0 0 1-.42-5.707c0-5.4.374-7.422 1.866-9.243a8.339 8.339 0 0 1 4.309-2.835 8.337 8.337 0 0 1 4.307 2.835c1.493 1.821 1.857 3.845 1.857 9.243a41.727 41.727 0 0 1-.414 5.707h-2.07v1.4a1.88 1.88 0 0 0 1.19 1.755l3.855 1.535a3.236 3.236 0 0 0 .716-2.024v-2.665c0-4.471-.136-10.305-1.081-14.565-.827-3.653-3.947-7.181-8.36-6.223-4.415-.958-7.534 2.57-8.361 6.223-.954 4.26-1.087 10.094-1.087 14.565v2.665a3.207 3.207 0 0 0 .727 2.024z" transform="translate(-215.485 -193.042)"/>
                    <path id="Path_3017-2" data-name="Path 3017" class="cls-3" d="M210.708 309.433h21.938a21.2 21.2 0 0 1-1.658-8.6 25.41 25.41 0 0 1 .175-2.954h-.006l-1.8-.716-.776 3.114a7.041 7.041 0 0 1-2.515 3.891 7.343 7.343 0 0 1-8.768 0 7.059 7.059 0 0 1-2.514-3.891l-.784-3.115-1.8.716h-.017a25.518 25.518 0 0 1 .175 2.954 21.212 21.212 0 0 1-1.65 8.601z" transform="translate(-210.708 -271.939)"/>
                </g>
            </g>
        </g>
    </g>
</svg>
