<svg xmlns="http://www.w3.org/2000/svg" viewBox="0 0 119.423 82.006">
    <defs>
        <style>
            .cls-1{fill:#fff}.cls-2{fill:#707070}.cls-3{fill:#e18577}
        </style>
    </defs>
    <g id="icon_2" data-name="icon 2" transform="translate(-118.494 -1734.538)">
        <g id="Group_3295" data-name="Group 3295" transform="translate(171.101 1734.538)">
            <path id="Path_11985" data-name="Path 11985" class="cls-1" d="M343.815 238.988v-12.952h15.918a6.464 6.464 0 0 1 6.47 6.475 6.477 6.477 0 0 1-6.47 6.476z" transform="translate(-299.388 -197.773)"/>
            <path id="Path_11986" data-name="Path 11986" class="cls-1" d="M343.815 270.976v-12.943h12.747a6.46 6.46 0 0 1 6.469 6.474 6.46 6.46 0 0 1-6.469 6.468z" transform="translate(-299.388 -216.171)"/>
            <path id="Path_11987" data-name="Path 11987" class="cls-1" d="M343.815 302.961V290.01h9.629a6.5 6.5 0 0 1 6.471 6.483 6.463 6.463 0 0 1-6.471 6.468z" transform="translate(-299.388 -234.557)"/>
            <path id="Path_11988" data-name="Path 11988" class="cls-1" d="M343.815 334.953v-12.946h6.5a6.5 6.5 0 0 1 6.479 6.478 6.482 6.482 0 0 1-6.479 6.467h-6.5z" transform="translate(-299.388 -252.955)"/>
            <path id="Rectangle_8152" data-name="Rectangle 8152" class="cls-1" transform="translate(0 37.864)" d="M0 0h5.895v34.53H0z"/>
            <path id="Path_11989" data-name="Path 11989" class="cls-1" d="M290.226 187.8v53.733h-27.169a12.924 12.924 0 0 1-12.939-12.943V200.5a10.779 10.779 0 0 1 3.517-7.968c.037-.022.071-.065.108-.09a4.281 4.281 0 0 0 .377-.326 52.381 52.381 0 0 0 11.09-13.226l9.559-16.162a6.35 6.35 0 0 1 3.96-2.979 6.47 6.47 0 0 1 7.183 9.554L274.986 187.8z" transform="translate(-245.514 -159.538)"/>
        </g>
        <path id="Rectangle_8153" data-name="Rectangle 8153" class="cls-2" transform="translate(163.311 1768.496)" d="M0 0h9.029v42.356H0z"/>
        <path id="Rectangle_8154" data-name="Rectangle 8154" class="cls-2" transform="translate(163.311 1789.67)" d="M0 0h9.029v21.184H0z"/>
        <path id="Rectangle_8155" data-name="Rectangle 8155" class="cls-3" d="M2 0h42.806v53.738H2a2 2 0 0 1-2-2V2a2 2 0 0 1 2-2z" transform="translate(118.494 1762.806)"/>
        <g id="Group_3296" data-name="Group 3296" transform="translate(136.34 1806.224)">
            <path id="Path_11990" data-name="Path 11990" class="cls-1" d="M198.544 331.989a1.892 1.892 0 1 1 1.889-1.9 1.893 1.893 0 0 1-1.889 1.9z" transform="translate(-180.01 -328.205)"/>
            <path id="Path_11991" data-name="Path 11991" class="cls-1" d="M178.968 331.989a1.892 1.892 0 1 1 1.889-1.9 1.892 1.892 0 0 1-1.889 1.9z" transform="translate(-168.755 -328.205)"/>
            <path id="Path_11992" data-name="Path 11992" class="cls-1" d="M159.39 331.989a1.892 1.892 0 1 1 1.889-1.9 1.892 1.892 0 0 1-1.889 1.9z" transform="translate(-157.498 -328.205)"/>
        </g>
    </g>
</svg>
