<svg id="Слой_1" xmlns="http://www.w3.org/2000/svg" viewBox="0 0 747 151">
    <style>
        .st0{fill:#ff8272}
    </style>
    <path d="M2.8 114.1V3.5h15.1v44.9h.8c2.7-2.9 6-5.1 9.8-6.7 3.8-1.6 8.1-2.4 12.8-2.4 6 0 11.3 1.3 16 4 4.7 2.6 8.4 6.8 11.2 12.4s4.1 12.8 4.1 21.4c0 13.5-3.5 23.7-10.6 30.6-7.1 6.9-17.6 10.3-31.5 10.3-10.1-.1-19.4-1.4-27.7-3.9zM51 99.4c4.2-4.5 6.4-11.5 6.4-21.1 0-9.5-1.8-16.2-5.5-20.3s-8.8-6.1-15.5-6.1c-3.5 0-6.9.6-10.1 1.9-3.2 1.3-6 3.2-8.3 5.8v44.8c4.2 1.2 8.8 1.8 13.8 1.8 8.5-.1 14.9-2.3 19.2-6.8z"/>
    <path d="M153.3 83.1h-51.5c.2 5.6 1.3 10 3.3 13.4 1.9 3.4 4.8 5.9 8.7 7.4 3.9 1.6 8.9 2.3 15 2.3 6.3 0 13.1-1 20.4-3v11.6c-7.7 2.1-15.2 3.1-22.5 3.1-13.5 0-23.6-3.2-30.2-9.6s-10-16.3-10-29.9c0-8.5 1.3-15.7 4-21.5 2.7-5.9 6.6-10.3 11.7-13.3s11.3-4.5 18.4-4.5c10.5 0 18.6 3.4 24.2 10.1s8.4 16.6 8.4 29.6v4.3h.1zm-46.5-27.9c-3.2 3.9-4.9 10.1-5 18.6H139c-.2-8.5-1.8-14.7-4.9-18.6-3.1-3.9-7.6-5.8-13.5-5.8-6 0-10.7 1.9-13.8 5.8z"/>
    <path d="M213.1 42c4.8 1.9 8.4 4.9 10.7 9.2 2.4 4.3 3.6 10.1 3.6 17.4v47.9h-12.6l-1.1-8.3h-.8c-2.6 3-5.9 5.4-9.9 7-4.1 1.7-8.4 2.5-13.1 2.5-5.2 0-9.7-.9-13.4-2.6s-6.6-4.2-8.5-7.4c-2-3.2-2.9-6.9-2.9-11.2 0-6.8 2.4-12.1 7.2-15.9s12.5-6.1 23.1-7l17.4-1.8v-4.1c0-4.3-.7-7.7-2.1-10.2-1.4-2.5-3.6-4.2-6.5-5.2s-6.8-1.5-11.6-1.5c-3.4 0-7 .3-10.9.8-3.9.6-7.6 1.4-11.1 2.6V42.7c3.5-1.1 7.4-2 11.8-2.6 4.3-.6 8.5-.9 12.5-.9 7.2 0 13.4 1 18.2 2.8zm-9.1 63c3.2-1.3 6.1-3.3 8.6-5.9V81.2l-16.2 1.6c-5.8.6-10 1.9-12.5 4-2.6 2-3.8 4.9-3.8 8.6s1.2 6.6 3.5 8.6 5.8 3 10.5 3c3.3 0 6.7-.6 9.9-2z"/>
    <path d="M254.2 110.9c-4.8-4.7-7.2-12-7.2-22.1V40.4h15.1v47.5c0 6 1.3 10.3 4 13 2.7 2.6 6.5 3.9 11.4 3.9 3.7 0 7.4-.8 11-2.3s6.7-3.8 9.3-6.7V40.4H313v76.2h-12.5l-1-8.1h-.8c-3.3 3.1-7.1 5.4-11.3 7-4.2 1.6-8.7 2.4-13.3 2.4-8.5 0-15.1-2.4-19.9-7z"/>
    <path d="M380.9 104.1v12.3c-4.2 1-8.7 1.5-13.4 1.5-8.9 0-15.7-2.2-20.4-6.6-4.7-4.4-7-11.2-7-20.4V52.6h-14.4V40.4h14.4l2.7-27.4h12.5v27.4H380v12.2h-24.7v35.7c0 6.2 1.3 10.5 3.9 13.1s6.6 3.9 12.1 3.9c2.7 0 5.9-.4 9.6-1.2z"/>
    <path d="M444.1 40.4h15l-42.7 107h-15l12.4-30.8h-4.1l-30.3-76.2h16l24.1 63.7 24.6-63.7z"/>
    <path class="st0" d="M507.8 114.1V3.5h15.1v44.9h.8c2.7-2.9 6-5.1 9.8-6.7 3.8-1.6 8.1-2.4 12.8-2.4 6 0 11.3 1.3 16 4 4.7 2.6 8.4 6.8 11.2 12.4s4.1 12.8 4.1 21.4c0 13.5-3.5 23.7-10.6 30.6-7.1 6.9-17.6 10.3-31.5 10.3-10.2-.1-19.4-1.4-27.7-3.9zm48.1-14.7c4.2-4.5 6.4-11.5 6.4-21.1 0-9.5-1.8-16.2-5.5-20.3s-8.8-6.1-15.5-6.1c-3.5 0-6.9.6-10.1 1.9-3.2 1.3-6 3.2-8.3 5.8v44.8c4.2 1.2 8.8 1.8 13.8 1.8 8.6-.1 15-2.3 19.2-6.8z"/>
    <path class="st0" d="M608.5 113.7c-5.4-2.9-9.6-7.2-12.5-13.1s-4.4-13.2-4.4-22c0-13.1 3.2-22.9 9.5-29.5s15.2-9.9 26.6-9.9c11.4 0 20.3 3.3 26.6 9.8 6.3 6.6 9.5 16.4 9.5 29.5 0 8.7-1.5 16-4.4 21.8-3 5.9-7.1 10.3-12.5 13.2-5.4 2.9-11.8 4.4-19.1 4.4-7.5.1-13.9-1.3-19.3-4.2zm34.7-14.1c3.6-4.3 5.4-11.3 5.4-21 0-9.8-1.8-16.8-5.4-21-3.6-4.3-8.7-6.4-15.5-6.4s-11.9 2.1-15.5 6.4c-3.6 4.2-5.4 11.2-5.4 20.9 0 9.8 1.8 16.8 5.3 21.1 3.5 4.3 8.7 6.4 15.5 6.4 6.9 0 12-2.1 15.6-6.4z"/>
    <path class="st0" d="M715.5 78l29.5 38.6h-17.2l-21.3-28.1-21.4 28.1h-16.8l29.3-38.4-28.7-37.8H686l20.8 27.2 20.7-27.2h16.6L715.5 78z"/>
</svg>
