<svg xmlns="http://www.w3.org/2000/svg" viewBox="0 0 166.421 166.421">
    <defs>
        <style>
            .cls-1{fill:#fff}.cls-2{fill:#b9b9b9}.cls-3{fill:#cccbca}.cls-4{fill:#e18577}
        </style>
    </defs>
    <g id="search" transform="rotate(-45 55.018 156.065)">
        <path id="Path_2333" data-name="Path 2333" class="cls-1" d="M226.315 200.73a25.579 25.579 0 1 1-25.583-25.58 25.584 25.584 0 0 1 25.583 25.58z" transform="translate(-74.267 -74.098)"/>
        <path id="Path_2334" data-name="Path 2334" class="cls-2" d="M202.9 222.607a1.339 1.339 0 0 0 .458-.1c-.19-.152-.6-.165-.842-.316.02.01-.769-.469-.6-.074.042.093.193.006.257.058-.094.141-.134.1-.029.163 0 0-.875-.48.005-.509-.611-.547.039-.376-.156-.723-.128-.233.516-.461.168-.666-.165-.1-.35-.078-.52-.2-.238-.173-.017-.482.213-.454.022 0 .139-.551.181-.638-.066-.023-.516-.584-.411-.7.137-.144.723.365.871-.008.055-.138-.206-.5-.186-.645.268-.03 2.013.04 1.717-.765-.1-.278-.84-.69-.762-.923.255.043.676.413.948.261.23-.113.409.134.643-.128.039-.051.427-.461.319-.544-.121 0-.185.067-.193.2-.141-.187.1-.314.223-.456l.086.124a42.04 42.04 0 0 1 .98-1.3c.414-.483.074-1.128.485-1.511A3.859 3.859 0 0 1 208 212a3.469 3.469 0 0 1 .761-.3c.86.263.756-.759 1.3-1.22s.144-2.836.595-3.012a9.985 9.985 0 0 0 1.351-1.4 1.407 1.407 0 0 0 .272-1.4c-.22-.765-.435-.327-.986-.662-.446-.265-.784-.8-1.334-.865a6.941 6.941 0 0 1-.979-.047c-.136-.039-.5-.268-.642-.077a1.012 1.012 0 0 0-.274.133c-.034-.026-.005-.422-.109-.523a3.115 3.115 0 0 0-.951-.371c-.475-.118-.59.443-.712-.229-.393-.112-.788-.569-.718-.683.035-.044-.611-1.413-.7-1.286 0-.46-1.427-1.028-1.787-.806-.327.232-.924-.215-1.124-.427-.224-.247-.218-.5-.6-.662-.161-.07-.44-.031-.374-.308.065-.3-.7-.353-.773-.64a.715.715 0 0 0 .3-.063c-.3.1-.665-.112-.955.124-.426.358-.68-.161-1.148-.071-.595.112-.193-.107-.569-.332.153.094-.694-.388-.5-.371-.18-.019.026.292-.168.363-.311.112-.581.185-.375.556.338.675-.714.359-.221-.1.093-.079.114-.968.213-.931a4.119 4.119 0 0 0-1.19.706c-.313-.49-.833 1.228-1.005 1.242-.087-.424-.487-.6-.838-.719-.3-.115-.6.593-.985.2-.692-.7-.39-1.825-.037-2.625.147-.369-1.281-.482-1.451-.334-.351.283.052-.584.049-.561.043-.345.118-.582.275-.576a6.47 6.47 0 0 0 .569-1.276c-.216-.5-1.113.391-1.2.61s-.263.34-.345.535-.252-.047-.4.034c-.388.216-.943.1-.856-.458.089-.676-.17-2.019.589-2.485.233-.141.27-.813.538-1.055.035-.027.8-.473.728-.563.111.116.716-.122.8.031a.548.548 0 0 0 .539.193c-.005.013.062-.3.062-.3s-.246-.03-.237-.109c.027-.106.751-.039.772-.034.344.026.6.31.85.138.4-.269.152 1.491.311 1.652.084.1.024.3.188.289.225-.022.3-2.286.876-2.753a8.8 8.8 0 0 1 1.365-.9 1.9 1.9 0 0 0 .617-.411c-.018-.075-.089-.163-.17-.084-.022-.137.209-.051.254-.2s-.123-.194-.1-.247c-.01.019.143-.294.094-.25a.107.107 0 0 1 .01.03c.233.034-.053-.216-.065-.259.3.16.175-.332.479-.363-.215.092-.175.331-.146.478.063.323.346-.443.311-.414a5.846 5.846 0 0 0 1.042-.574c-.071-.034-.145.024-.235-.039a6.891 6.891 0 0 0 .969-.229.671.671 0 0 1 .536-.714 12.355 12.355 0 0 0 1.736-.605c-.087.188.043.041.19.112-.178-.461-1.145.855-.686.587.39-.224 1.7-.425 1.88-.806-.005-.025-.087-.272-.082-.272-.327 0-.354.4-.751.4-.723-.008-.289-.454-.44-.653a.315.315 0 0 1-.323-.1c.07-.015.965-.225.493-.33-.765-.163-1.277.692-1.9.667a5.506 5.506 0 0 1 1.681-.972c.605-.086 1.451.21 1.985-.166.478-.326.8-.086 1.072-.625.084-.143-.348-.328-.459-.35.049-.058.145 0 .181-.089-.719-.327-.869-.641-.955-1.469-.367.268-1.589.835-.935-.09-.234-.1-.977-.722-1.265-.292a1.778 1.778 0 0 1-.557.608c-.487.225-.052.18-.215.508-.277.535-.941.465-1.257.933-.2.294-.256.5-.565.641-.27.116-.372-.206-.239-.454.094.107.183.122.259.041.022-.112-.146-.053-.2-.1a2.313 2.313 0 0 1 .348-.458c-.046-.023-.733-.132-.709-.313.045-.374-.43-.17-.51-.282.368-.463.368-.68 1.089-1.04.244-.124 1.627-.828 1.881-.652-.029.155-.2.125-.293.206a1.778 1.778 0 0 0 .972-.022c-.041-.04-.274-.423-.152-.512a2.236 2.236 0 0 0 .424 0c.221-.058.466-.082.595-.3a1.307 1.307 0 0 1 1.009-.361c.955.541-1.293 1.114-1.315 1.051.045.158.65-.109.8.305.039.106.73.327.8.232.04-.053-.2-.3-.207-.364.725.351.683.169.562-.314-.111-.461.422.03.456.042.122.066.609-.214.683-.314-.178-.141-.485-.138-.634-.305-.145-.138.375-.178.193-.326-.217-.179-.565-.14-.443-.485a.433.433 0 0 0-.361.042c.035.068.107.018.134.056a.729.729 0 0 1-.393.082c.043-.063.17-.063.17-.181-.374-.049-.573.181-.9.279.1-.137.25-.176.362-.277a1.881 1.881 0 0 0-.976.41.592.592 0 0 1 .109.136 3.541 3.541 0 0 1-.957.457c.054-.212.285-.158.363-.321a.724.724 0 0 0-.335.077c.136-.017.539-.421.631-.523-.581-.067-.828.69-1.376.578.114-.133.348-.062.424-.269-.2.022-.972.542-1.1.269a10.271 10.271 0 0 0 1.561-.782c-.1-.01-.206.088-.292-.023.069-.078.184-.085.265-.17-.465 0-1.848.557-1.739.88a.54.54 0 0 1-.593.092c.087-.131.387-.134.143-.327-.447.167-.879.347-1.31.538a22.9 22.9 0 0 0-2.9 1.534 21.781 21.781 0 0 0-4.055 3.331c-.674.68-3.229 3.667-3.22 4.288a3.287 3.287 0 0 1-.436 1.28 11.654 11.654 0 0 1-.322 1.124c-.374.662-.2 1.432-.371 2.192.212-.161.647-3.64 1.022-3.512a7.419 7.419 0 0 1-.313 1.62c-.317.731.1 1.628-.108 2.388a5.52 5.52 0 0 0-.131.539c-.348.272.092.674.09.969 0 .177.9.967 1.071 1.068.377.225.451-.176.794-.1.309.067.4.628.563.861.22.332 1.06.293 1.205.449.094.117.015.76.4.85-.005-.041-.013-.27.039-.3.119-.071.364.358.284.437a.317.317 0 0 1-.324-.135c0 .062-.063.9.183.734 0-.051.017-.106.022-.156.322.141.3.61.527.678.31.078.544.478.783.586.207.108.152-.736.551-.772.323-.035.5.806.618 1.013.167.3-.228 1-.007 1.237s-.554.792-.593 1.033c-.028.183-.419.353-.409.424a1.609 1.609 0 0 1-.155.65c-.2.521-.1.572.239.809.007.008-.632 1.283-.264 1.61a5.726 5.726 0 0 1 1.536 2.4 3.72 3.72 0 0 0 1.937 2.156 2.311 2.311 0 0 1 1.348 2.074 5.151 5.151 0 0 0 .185 1.784c.165.367-.147.97.089 1.3.152.21-.049.323.043.518a2.412 2.412 0 0 1 .3.786c-.008.4 0 .88.029 1.278.005.136-.124.364-.052.451a7.028 7.028 0 0 1 .63 1.828c0 .093.415-.031.037-.409.447-.245.358.8.391.81-.4-.133-.144-.025-.114.487.025.309-.075.159.17.221.4.089 0 .348.152.565a10.85 10.85 0 0 0 1.065 1.154c.509.537 1.379.451 1.986.576.09-.011-.11-.054.002-.032zm1.666-41.692a1 1 0 0 1-.454.2c.115-.175.288-.143.456-.2zm-1.329-.112a.237.237 0 0 1 .239.086c0 .039-.544.069-.626.206.068-.242.27-.2.387-.292.053.072-.116.097.001-.003zm-1.339.945c.113.028-.168-.024 0 0 .002.002-.032-.005.002 0zm-.739-1.4c.048-.059.089-.05.117.025-.052.061-.092.053-.117-.025.009-.03-.001.031.002-.001zm-.731 2.183c-.028-.001.032.005.001-.001zm.218-.847c-.713.672-.158.008-.367.22a.012.012 0 0 1-.01.02c-.055-.066.363-.233.377-.239-.087.087-.121.025.001-.001zm-.259-.785c-.132.146-.132.146-.309.113.092-.065.222-.036.31-.112zm3.176-2.512h-.163c.227-.189.19 0 .163 0-.044.001.037-.001.001-.001zm.515-.342c-.076.088-.193.034-.289.078.106-.196.125-.199.291-.079zm-2.884.238a.269.269 0 0 1 .213-.077c.066.1-.435.157-.213.077.032-.058-.024.008.006 0zm-.127-.15c.084.042.076.075-.022.113-.072-.037-.058-.071.022-.113.033-.001-.038.004.001-.001zm-3.73 6.367c.007 0-1.116.443-1.027.17-.031.083.383-.321.295-.285a8.119 8.119 0 0 1 1.064-.075.865.865 0 0 1-.332.19c-.249.092.108-.043.001 0zm.9-.554c.927.09-.553.37-.709.2a.869.869 0 0 1 .709-.2c.074.006-.255-.035-.003-.001zm-.151-5.759a2.521 2.521 0 0 1 .834-.351 2.154 2.154 0 0 1-.844.355zm.049 5a.073.073 0 0 1-.118 0c.056-.023.109-.041.118 0s-.011-.039-.002.002zm-.272.555c-.017 0-.093-.022 0 0 .003.002-.031-.01-.002.002zm-.274-.478c.335.159.146.685-.145.274a1.125 1.125 0 0 1-.657.7.329.329 0 0 0 .089-.316c-.073-.061-.215.106-.292.1.032.143.606-.986.124-.656a17.072 17.072 0 0 1-1.4 1.3c-.109-.116.514-1.017.559-1.055a1.944 1.944 0 0 1 1.72-.344zm-.642-4.3c.046-.026.419-.255.465-.2.119.149-.6.328-.633.334.042-.091.109-.107.168-.137.126-.069-.061.039-.001.005zm.076 3.021c0 .019-.149.3-.238.191-.07-.079.213-.322.238-.191-.011.074-.007-.034-.001.003zm-.81-2.327c.042 0 .645-.383.662-.227a5.276 5.276 0 0 1-.663.229zm-.168.613a.149.149 0 0 1-.155.1c.028-.071.085-.071.154-.098zm-.417 1.452c.084-.066.277-.377.183-.5.052.069-.361-.044-.172-.115.078-.022.549-.283.626-.2.135.138-.589.9-.731.958a.176.176 0 0 1 .095-.137c.116-.093-.044.023-.002-.005zm.408.954c.52-.168.709-.458 1.02-.066.117.148.1.532-.181.442.074.022-.842-.066-.674-.165a.939.939 0 0 1-.757.1 3.553 3.553 0 0 1 .592-.311c.128-.038-.215.074-.001.002zm-.721-.961c.05.12.015.185-.125.2.05-.078.091-.143.123-.198zm-7.343 11.161c-.236-.006.183-.006 0 0zm2.964 2.129c-.064.021.185-.046 0 0-.011.007.031-.006-.002.002zm7.233 2.39c-.125-.025.143.012 0 0-.012.004.015.004-.002.004zm1.183 21.2c-.2-.034.111-.162 0 0-.052-.006.003-.006-.001.004zm.527-10.6c-.074-.078.049.04 0 0-.009-.009.013.004-.002-.002zm.084 6.6c-.134.049.143-.047 0 0-.035.012.018-.007-.002.004zm.7 7.123c-.094-.058-.094-.089-.008-.1.106.038.106.078.008.1zm.919.4c-.1-.02-.087-.054.028-.112.082.032.074.074-.028.112-.044.002.018-.006-.003.002zm-1.953-2.629a.086.086 0 0 1-.032.01c.026-.018.034-.022.029-.007zm2.291-42.574zm-8.69 4.117zm.244-.2zm40.578 15.81h.005a39.557 39.557 0 0 0-1.64-5.454A25.618 25.618 0 0 0 221.551 179a23.801 23.801 0 0 0-1.341-.715c-.2-.094-.9-.278-1-.447.01.078.406.279.461.334a4.829 4.829 0 0 1-1-.421c.019-.03.074 0 .067-.059-.4-.253-1.915-.809-2.215-.4a4.192 4.192 0 0 1 1.069 1.25c.061.436.748.9 1.185 1.048.609.2.152-.072.411-.209.167-.085.32.276.476.193-.005 0 0 0 .005-.013-.044-.083-.094-.165-.143-.25-.042 0 1.109 1.187 1.25.928a2.74 2.74 0 0 0-.668-.988c-.289-.274-.741-.295-1.055-.57-.158-.131-.741-.563-.8-.758.767.022 1.662 1.658 2.431 1.024a3.463 3.463 0 0 1-.31-.24c.143.044.788.249.571.521-.616-.106.518.524.538.585-.112-.007-.19-.1-.294-.1.047.214.654.438.7.8-.367.054-.2-.227-.448.078-.072.1-.4.062-.583.072-.422.037-.893-.682-1.2-.9a1.548 1.548 0 0 0 .8.874c.217.12-.3.176-.3.358.013 0 .142.066.139.1s-.121-.082-.139-.1a3.182 3.182 0 0 1-.086.691c.348.409-.461.292-.48.3.065.092.194.137.217.273a2 2 0 0 0-.654.061c.333.1 2.169.943 1.765 1.582-.122.212-1.366-.049-1.6-.056-.482-.038-.034.458-.022.511.076.366.358.528.335.959-.024.3.285.307.379.562.084.22.038.238.268.275.41.049.417-.013.763.252.247.191.338-.179.631-.189.726-.026.109-.18.456-.277.432-.119-.122-.793-.094-.926.031-.178-.028-.375.209-.439.37-.1-.1-.485-.122-.586-.069-.3 1.017.259.883-.506a10.911 10.911 0 0 1 1.85 1.09 3.182 3.182 0 0 1 .932.719c.3.383-.427.232-.473.339s.635.433.744.426a3.214 3.214 0 0 0-.093-.529c-.027-.274-.422-.542-.4-.758a.657.657 0 0 1 .335.135c-.366-.451-.961-.492-1.378-.827-.25-.2-.569-.373-.809-.582 0 0-.448-.568-.137-.459a15.1 15.1 0 0 1 1.513.923 2.177 2.177 0 0 1 .788.673 5.442 5.442 0 0 0 .857.868 4.7 4.7 0 0 0 .7.508 5.17 5.17 0 0 0-.272-.629c-.136-.218-.7-.343-.7-.677.128.01.146-.122.419-.112-.142-.006.181-.223.161-.187a4.021 4.021 0 0 1-1.44-1.785c.146 0 .226.2.389.1a.547.547 0 0 1-.053-.324c.041.051.541.476.442.563a.513.513 0 0 1-.363-.173c.076.253.324.259.426.433.013-.071-.034-.124.024-.2.435.184 1.334.878 1.454 1.373-.194.018-.561-.394-.69-.3a.32.32 0 0 0 .021.3.382.382 0 0 0-.16.041.313.313 0 0 1 .117.214 1.532 1.532 0 0 1-.216.067c.062.247 1.361 1.484 1.453 1.359.023-.047-.055-.17-.035-.188.067-.08.273.278.38.208.084-.058-.086-.17.007-.214.2-.1.974 1.42 1.072 1.6.372.709.125.276-.158.373a.535.535 0 0 0-.079.231 4.067 4.067 0 0 1-1.317-.625c-.589-.426.187 1.15-.154.953-.2-.114-.317-.283-.563-.3-.355-.041-.458-.422-.786-.532-.264-.089-1.324-.186-1.188-.67.112-.417-.42-.757-.6-.916a5.675 5.675 0 0 0-1.457.124c-.319.1-.835.216-1.015.515-.309.561-1.028-.179-1.315-.065-.153.064-.005.526-.087.67-.112.225-.4.239-.475.5-.127.478.238.869.072 1.313-.136.351-.809.5-.819.786a.458.458 0 0 1-.179.411c-.308.18.007.582-.185.784-1.039 1.062.333 2.1.1 3.257-.135.661-.212.8.071 1.365.065.144.015 1.167.535.749.066.6.832.721.97 1.285.163.672.823.966 1.334 1.373a4.736 4.736 0 0 0 .617.486c.424.212.707-.114 1.108-.226a1.493 1.493 0 0 1 1.088.1c.194.091 1.663-.951 2.058-.756.294.149.313.5.444.76.194.354.595-.116.865.011.483.21.625 1.972.22 2.3-.308.223.39 1.18.482 1.375a4.242 4.242 0 0 1 .442 2.1c-.069.486.063 1.265-.214 1.69a10.7 10.7 0 0 0-.663 1.379c-.58 1.257-.024 2.677-.523 3.979a10.243 10.243 0 0 0-.411 2.074c-.11.452-.655 1.1-.441 1.565.324-.292.81-.256 1.182-.441.758-.374 1.118-1.243 1.669-1.825a4.032 4.032 0 0 0 .652-1.08c.16-.362.5-.592.654-.947.383-.893.734-1.78 1.12-2.675a21.916 21.916 0 0 0 1.231-5.845 19.668 19.668 0 0 0-.108-6.437zm-1.926-5.084c-.108-.259-1.467-2.252-1.307-2.368.185-.112 3.092 5.046 2.778 5.844-.445-1.174-.974-2.322-1.471-3.476zm1.25 9.124c-.058-.141.02-.269.059-.433.055.175-.042.302-.063.434zm-.156.811a.3.3 0 0 1 .044-.223c.036.087 0 .151-.048.229zm-.485 6.62c-.05.017-.1.041-.152.058-.094 0 .17-.131.185-.139-.018.049-.018.065-.033.081-.035.06.01-.014-.004.001zm.075-2.69c-.005-.238.009-.256.254-.41-.054.176-.226.253-.258.411zm.275-1.25a6.768 6.768 0 0 1 .079-1.412c.02.762.055 1.528.031 2.292a2.158 2.158 0 0 1-.111-.88c-.005-.161-.003.155-.003.001zm.4 1.431a4.309 4.309 0 0 1-.335 1.845c.023-.688.283-1.318.293-2.01a.208.208 0 0 1 .043.165zm.324-4.178c-.121.486-.005.641-.3.914 0-.366-.138-1.059.239-1.278a.562.562 0 0 1 .058.364c-.052.201.034-.143 0 .001zm-16.06 23.757c.04.072-3.215.991-3.55 1.065a25.793 25.793 0 0 1-4.107.526 23.455 23.455 0 0 1-7.905-.877 4.578 4.578 0 0 0 1.05.152c-.317-.2-.7-.128-.982-.373 1.054.167 2.057.088 3.023.216-.1-.139-.98-.348-.977-.441.127-.01.8-.028.831-.049.321-.249-.506-.22-.433-.4.022-.042.247.038.331-.072.122-.164 0-.25.043-.338a5.092 5.092 0 0 1 1.447-.237c-.148.088-.322-.017-.257.235-.131-.015-.527-.005-.548.168a3.868 3.868 0 0 1 .446.573c.146.228.661.371.7.647.089.463 2.508.414 2.869.375.907-.1 1.754-.428 2.644-.584.53-.09 1.058-.239 1.595-.3a7.006 7.006 0 0 1 1.276-.245c.121.429 2.053-.133 2.505-.044-.001.011-.08-.01-.004.003zm14.731-14.122c.107-.262.19-.533.317-.783a5.745 5.745 0 0 1-.32.783zm.426-1.055c.01-.035.024-.068.031-.094.004.035-.021.06-.037.094zm-27.976-33.488c-.136-.025-.284 0-.427-.03.077-.065.5-.084.316-.2a4.8 4.8 0 0 1 2.5-.355c.761.094 1.524-.139 2.27-.022a7.294 7.294 0 0 0 .873.077c.263.026-.041.3.263.35.178.018.531.419.694.329-.013.28-.137.088-.044.348.018.063.333.239.318.261a8.085 8.085 0 0 1-.842-.009c-.064-.01.019.128.072.11.167.039.534-.013.721 0-.43.386-1.072.343-1.547.653a4.76 4.76 0 0 1-1.049.286 2.321 2.321 0 0 1-.466 1.067c-.154.228-1.232-.31-1.344-.446-.236-.283-.772-1.025-.19-1.26.712-.282.005-.05-.2-.2.17-.242.355-.159.627-.116a.38.38 0 0 0-.518-.143c-.065-.2.3-.386-.02-.6-.139-.094-.887.018-.909-.116-.045-.325.911-.152 1.082-.418-.717-.155-1.482.545-2.178.439-.141-.031.121.014-.005-.005zm13.466 4.876c.113-.015-.146-.378-.214-.456a.307.307 0 0 0 .227-.03 2.2 2.2 0 0 0-.856-.565c-.279.178-.634-.614-.672-.719.484-.066.78.449 1.217.661.368.18 1.707.817 1.742 1.217.034.206-1.013.122-1.165.355-.115-.292.265-.289.253-.38-.016-.072-.477-.09-.532-.083zm-13.629.377a7.348 7.348 0 0 0-.956.989c.021.079.942.022 1.1.113-.014.1-.137.052-.152.144.115 0 .485-.236.55-.163a.262.262 0 0 1-.031.169c.41.4.368-.47.39-.518-.286-.039.064-.443-.423-.272a1.987 1.987 0 0 0-.49-.131c-.045-.045.389-.427.427-.47-.259-.067-.293.042-.413.139-.158.114.031-.029-.005 0zm.891.945c.038.036-.058.036 0 0 .005.013-.015.011-.003 0zm-.2-.02c.024-.03.181-.1.084-.007-.031.061-.167.1-.084.007.002-.013-.023.02-.005.003zm-.642-1.043v.007zm-.818.822a.084.084 0 0 1 .066.019c-.026 0-.124-.006-.066-.019.023 0-.022.004-.005 0zm-8.875 10.671c-.247.024.165-.2.128-.276-.173-.388-1.328-.473-1.436-.789a.163.163 0 0 0 .1-.106c-.4-.157-.6.327-.964.295.746-1.265 2.6.179 3.339.768-.391.046-.777.05-1.17.108-.033.002.215-.029-.002 0zm.969.671c-.189-.083.613-.075.722-.116-.163-.245-.02-.376-.326-.469.284-.343 1.21.054 1.5.186-.024.041-.078.005-.109.053.024.025.633.529.223.358-.451-.192-.7.077-1.023.256-.248-.36-.661-.109-.99-.267-.042-.019.07.031-.002-.001zm21.656-12.938c.434.454-.236.793-.544.5-.148-.155-.06-.514-.406-.625.089-.028.183-.055.275-.092-.237-.554.562.093.675.212.092.108-.037-.033-.005.005zm-5.664-2.737c-.026-.09.625-.044.737-.07.169-.027 1.465.1 1.01.314-.35.158-.868.334-1.205.029-.083-.073-.536-.254-.541-.273-.026-.057.015.09-.006 0zm11.844 6.427c.148 0 .515.586.457.682-.172.274-.463-.424-.641-.531a1.281 1.281 0 0 0 .179-.151zm-20.24-7.871c.437-.337.541-.148 1.092-.088a1.408 1.408 0 0 1-1.092.088c.112-.093.486.101-.005.001zm9.761-.382c-.327-.1-.67-.109-.982-.232a3.1 3.1 0 0 1 1.1.18c.089.026-.142.04-.12.052-.329-.095.028.008-.003 0zm-.982-.232l-.109.011a.079.079 0 0 1 .109-.011c-.042.004-.022-.005-.006 0zm-17.242 17.752a.127.127 0 0 1 .123.116c-.045.185-.618-.079-.681-.159a.535.535 0 0 1 .552.043zm4.119-.012c-.3.744-1.068-.519 0 0-.05.105-.187-.089-.006 0zm1.19 3.617c.007-.02.025-.028.054-.03a.468.468 0 0 0-.06.029zm.1-.02c-.013-.005.082-.3.277-.319.232.141-.164.332-.277.319-.017-.006.251.028-.001-.001zm2.419-20.884c-.2.133-.445.044-.658.122a.642.642 0 0 1 .658-.122c-.2.132-.035-.009-.001 0zm-7.687 15c-.076-.308-.2-.313.009-.582.079.285.079.457-.009.582-.031-.129.088-.127 0-.001zm-5.544 10.579c0 .109-.055.151-.165.112a.767.767 0 0 1 .015-.48c.049.12.1.239.151.368.017.045-.05-.13-.002-.001zm12.819-20.01a.983.983 0 0 1 .641.223.669.669 0 0 1-.642-.224zm21.183 2.362c-.067-.021-.482-.276-.317-.409.129-.087.302.367.316.408zm4.29 2.135c-.074-.078-.244-.024-.285-.194.14.075.305.041.442.149-.051.039-.1.092-.157.045-.076-.079.054.046 0-.004zm-24.7-9.926c-.043-.058-.112-.019-.155-.07.115-.134.279-.087.424-.128-.008.015-.178.332-.27.2-.04-.061.025.039.003-.004zm-.717.16a.918.918 0 0 1-.646.259 1.137 1.137 0 0 1 .649-.261zm-.069 6.329a.585.585 0 0 0 .194-.008c-.255.31-.549-.12-.485-.137-.046.011.278.145.291.145.054.012-.094-.014.002-.002zm.107-6.208a.828.828 0 0 1 .6-.147.957.957 0 0 1-.598.146zm20.016 8.228c-.2-.027.38-.212.17.058a.4.4 0 0 1-.17-.058c-.029-.006.065.003.001-.001zm6.391 1.462a.219.219 0 0 1-.133-.282.293.293 0 0 1 .134.281zm-25.967-8.763c.072-.127.154-.157.406-.154a.467.467 0 0 1-.405.153zm-1.847.862a.7.7 0 0 1-.41.123c.111-.124.24-.119.411-.124zm15.353 1.055c-.03.059 0 .093.039.13-.044-.02-.221-.239-.087-.271.063.025.082.07.048.141s.019-.034.001-.003zm-23.138 12.526c-.005.09-.046.134-.13.13-.037-.072.093-.289.13-.13.019.053-.005-.029.001-.001zm8.617 26.562a.172.172 0 0 1 .11.152c0 .223-.4-.118-.11-.152.04-.005-.06.003.001-.001zm-.582-40.013a.4.4 0 0 1-.223.149.227.227 0 0 1 .224-.15zm-11.57 23.195c-.017.259-.077-.25 0 0 0 .027-.008-.027 0-.002zm13.279-22.773a.07.07 0 0 1 .032.006c-.032.024-.086.024-.032-.006zm-1.14-2.443c-.03.005-.066.016-.089.02a.079.079 0 0 1 .089-.016zm-.105.024c-.022 0 .011-.005.017-.005s-.017.004-.017.009zm-.12.029h-.005s-.001.005.005.005zm0 0c.026-.034.071-.028.113-.029a.091.091 0 0 1-.113.034zm.812.043l-.001.005zm0 0c-.01.047-.047.042-.076.042a.058.058 0 0 1 .075-.033zm-9.413 26.2c-.021 0 .029.037-.001.013zm27.359-24.2c.162.046.01.033 0 0zm-3.956.973v-.008a.031.031 0 0 1 .015.038.08.08 0 0 0-.012-.029s.003.024-.004.012zM202.65 177h-.003zm-.05.01a.154.154 0 0 1 .048-.01c-.02.032-.037.035-.048.01.018-.003 0 .006 0 .004zm23.306 7.9h.005zm-20.3 16.5c-.082-.07.055-.049 0 0-.006-.005.017-.017-.006.004zm12.157 23.763a.018.018 0 0 1-.016.006c0-.013.006-.021.016-.017zm-.015.007zm-20.44-41.88c.018-.005.254-.035.17.062-.094.046-.146.023-.17-.062.03 0 .003.051 0 0zm-1.489-2.085c-.068-.044-.054-.092.042-.137.082.026.07.078-.042.137-.031.001.05-.015 0 .004z" transform="translate(-82.421 -74.594)"/>
        <path id="Path_2335" data-name="Path 2335" class="cls-3" d="M239.893 390.937v9.693h10.19v-9.693a43.15 43.15 0 0 1-10.19 0z" transform="translate(-118.522 -221.613)"/>
        <path id="Path_2336" data-name="Path 2336" class="cls-3" d="M163.112 120.122a42.992 42.992 0 1 0 0 85.984 42.983 42.983 0 0 0 42.993-42.994 42.991 42.991 0 0 0-42.993-42.99zm0 77.878A34.889 34.889 0 1 1 198 163.112 34.887 34.887 0 0 1 163.115 198z" transform="translate(-36.647 -36.48)"/>
        <path id="Path_2337" data-name="Path 2337" class="cls-3" d="M230.638 468.1q3.96.39 8.024.4t8.022-.4v-19.74h-16.046v19.74z" transform="translate(-112.195 -260.868)"/>
        <path id="Path_2338" data-name="Path 2338" class="cls-3" d="M226.423 421.574v8.475h18.715v-8.475h-18.715z" transform="translate(-109.314 -242.557)"/>
        <path id="Path_2339" data-name="Path 2339" class="cls-4" d="M148.954 182.21l-1.04-2.57a57.02 57.02 0 0 0 5.592-2.625l1.312 2.439a60.088 60.088 0 0 1-5.864 2.756zm-45.148-.071a59.87 59.87 0 0 1-5.848-2.771l1.319-2.436a57.256 57.256 0 0 0 5.579 2.642zm56.545-6.055l-1.568-2.286a56.967 56.967 0 0 0 4.9-3.765l1.806 2.1a60.689 60.689 0 0 1-5.138 3.95zm-67.913-.1a60.373 60.373 0 0 1-5.121-3.96l1.81-2.1a57.612 57.612 0 0 0 4.886 3.78zm77.729-8.318l-2.018-1.9a57.36 57.36 0 0 0 3.982-4.722l2.213 1.67a60.406 60.406 0 0 1-4.178 4.95zm-87.518-.128a61 61 0 0 1-4.16-4.963l2.217-1.664a57.854 57.854 0 0 0 3.968 4.735zm95.312-10.191l-2.378-1.421a56.241 56.241 0 0 0 2.875-5.463l2.519 1.155a59.388 59.388 0 0 1-3.017 5.727zm-103.075-.157a60.214 60.214 0 0 1-3-5.74l2.514-1.15a57.613 57.613 0 0 0 2.863 5.475zm108.47-11.59l-2.629-.877a56.633 56.633 0 0 0 1.631-5.954l2.709.584a59.67 59.67 0 0 1-1.711 6.247zm-113.834-.183a59.456 59.456 0 0 1-1.693-6.256l2.712-.578a56.633 56.633 0 0 0 1.612 5.965zm116.567-12.46l-2.755-.287a58.424 58.424 0 0 0 .314-6.035v-.139h2.772v.139a60.786 60.786 0 0 1-.331 6.318zm-119.261-.194a60.657 60.657 0 0 1-.31-6.129v-.346l2.77.03v.316a57.592 57.592 0 0 0 .3 5.848zM183.3 120.327a57.128 57.128 0 0 0-1-6.093l2.706-.6a60.847 60.847 0 0 1 1.054 6.389zm-113.653-.186l-2.753-.31a59.509 59.509 0 0 1 1.073-6.387l2.7.606a57.659 57.659 0 0 0-1.016 6.091zm110.991-11.859a56.963 56.963 0 0 0-2.3-5.734l2.511-1.169a59.016 59.016 0 0 1 2.41 6.015zm-108.288-.175l-2.621-.9a59.27 59.27 0 0 1 2.427-6.005l2.508 1.176a56.841 56.841 0 0 0-2.309 5.729zM175.442 97.1a57.788 57.788 0 0 0-3.477-5.108l2.2-1.681a59.913 59.913 0 0 1 3.644 5.355zm-97.852-.158L75.222 95.5a59.92 59.92 0 0 1 3.66-5.34l2.2 1.687a57.409 57.409 0 0 0-3.492 5.095zm90.37-9.657a57.889 57.889 0 0 0-4.484-4.246l1.793-2.112a60.324 60.324 0 0 1 4.7 4.452zm-82.86-.128l-2.006-1.913a60.614 60.614 0 0 1 4.716-4.436l1.79 2.115a57.775 57.775 0 0 0-4.5 4.234zm73.461-7.857a57.328 57.328 0 0 0-5.288-3.191l1.3-2.446a60.656 60.656 0 0 1 5.543 3.343zm-64.035-.1l-1.55-2.3a60.332 60.332 0 0 1 5.556-3.33l1.292 2.452a57.441 57.441 0 0 0-5.298 3.178zm53.146-5.686a56.625 56.625 0 0 0-5.852-1.976l.743-2.67a60.145 60.145 0 0 1 6.135 2.071zm-42.236-.07l-1.02-2.576a59.764 59.764 0 0 1 6.145-2.053l.733 2.672a56.9 56.9 0 0 0-5.859 1.952zm30.354-3.233a57.443 57.443 0 0 0-6.139-.669l.152-2.767a59.972 59.972 0 0 1 6.436.7zm-18.459-.032l-.441-2.736a60.153 60.153 0 0 1 6.439-.68l.144 2.767a57.3 57.3 0 0 0-6.143.644z"/>
    </g>
</svg>
