<svg id="Слой_1" xmlns="http://www.w3.org/2000/svg" viewBox="0 0 69 13">
    <style>
        .st0{fill:#fff}.st1{fill:#ff8272}
    </style>
    <path class="st0" d="M1.7 10.2c-.5-.1-.9-.2-1.3-.3V.5h2v3.8h.1c.2-.3.5-.5.8-.6.3-.2.7-.2 1.1-.2.5 0 1 .1 1.4.4s.7.6 1 1.1c.2.4.3 1 .3 1.7 0 1.2-.3 2-1 2.7s-1.7.9-3 .9c-.4 0-.9-.1-1.4-.1zm3-1.9c.3-.3.4-.8.4-1.4 0-.6-.1-1.1-.4-1.4-.2-.3-.6-.4-1.1-.4-.2 0-.5 0-.7.1-.1.1-.3.2-.5.3v3.1c.3.1.6.2.9.2.6 0 1.1-.2 1.4-.5z"/>
    <path class="st0" d="M14.4 7.4h-4.3c0 .3.1.6.2.8.1.2.4.3.7.4.3.1.7.1 1.2.1s1.1-.1 1.8-.2v1.4c-.7.1-1.4.2-2.1.2-.9 0-1.6-.1-2.2-.4-.6-.2-1-.6-1.3-1.1s-.3-.9-.3-1.7c0-.7.1-1.3.4-1.8.3-.5.6-.9 1.1-1.2s1.1-.4 1.8-.4c1 0 1.7.3 2.3.9.5.6.8 1.4.8 2.6v.4zm-4-2.3c-.2.3-.3.7-.3 1.2h2.4c0-.6-.1-1-.3-1.2-.2-.3-.5-.4-.9-.4s-.7.1-.9.4z"/>
    <path class="st0" d="M19.9 3.8c.5.2.8.5 1 .9s.3 1 .3 1.7v3.8h-1.7l-.1-.6h-.1c-.2.3-.5.4-.8.6-.3.1-.7.2-1.1.2-.5 0-.9-.1-1.2-.2-.3-.2-.6-.4-.8-.7-.2-.3-.3-.6-.3-1 0-.6.2-1.1.7-1.4.5-.3 1.2-.5 2.2-.6l1.2-.1c0-.3-.1-.6-.2-.7-.1-.2-.3-.3-.5-.4-.1-.3-.4-.3-.8-.3-.3 0-.6 0-.9.1-.3 0-.7.1-1 .2V3.8c.3-.1.7-.2 1.1-.2.4-.1.8-.1 1.1-.1.8 0 1.4.1 1.9.3zm-1.2 5c.2-.1.4-.2.5-.3V7.3l-1 .1c-.4 0-.7.1-.8.2s-.3.3-.3.6c0 .2.1.4.2.5s.4.2.7.2c.3 0 .5 0 .7-.1z"/>
    <path class="st0" d="M23.4 9.6c-.4-.4-.7-1.1-.7-2.1v-4h2v3.8c0 .4.1.7.3.9.2.2.4.3.7.3.2 0 .5 0 .7-.1.2-.1.4-.2.6-.4V3.6h2v6.6h-1.6l-.1-.6h-.1l-.9.6c-.3.2-.7.2-1.1.2-.8-.1-1.4-.4-1.8-.8z"/>
    <path class="st0" d="M35 8.6v1.5c-.2 0-.4.1-.6.1h-.7c-1.7 0-2.6-.8-2.6-2.5V5.2H30V3.6h1.1l.4-2.3h1.6v2.3H35v1.6h-1.8v2.3c0 .3 0 .5.1.7.1.2.2.3.4.4.2.1.4.1.6.1.2 0 .4-.1.7-.1z"/>
    <path class="st0" d="M40.4 3.6h2l-3.6 9.2h-2l1-2.6h-.5l-2.5-6.6h2.1l1.7 4.8 1.8-4.8z"/>
    <path class="st1" d="M47.7 10.2c-.5-.1-.9-.2-1.3-.3V.5h2v3.8h.1c.2-.2.5-.4.8-.5.3-.1.7-.2 1.1-.2.5 0 1 .1 1.4.4s.7.6 1 1.1c.2.5.4 1.1.4 1.8 0 1.2-.3 2-1 2.7s-1.7.9-3 .9c-.6-.2-1.1-.3-1.5-.3zm2.9-1.9c.3-.3.4-.8.4-1.4 0-.6-.1-1.1-.4-1.4-.3-.3-.6-.4-1.1-.4-.2 0-.5 0-.7.1l-.6.3v3.1c.3.1.6.1.9.1.8.1 1.2-.1 1.5-.4z"/>
    <path class="st1" d="M55.7 9.9c-.5-.3-.9-.6-1.2-1.2-.3-.5-.4-1.1-.4-1.9 0-.7.1-1.4.4-1.9.3-.5.7-.9 1.2-1.1.5-.3 1.1-.4 1.9-.4s1.3.1 1.9.4c.5.3.9.6 1.2 1.1.1.6.3 1.2.3 2 0 .7-.1 1.3-.4 1.9-.3.5-.7.9-1.2 1.2-.5.3-1.1.4-1.8.4-.8-.1-1.4-.3-1.9-.5zm2.9-1.6c.2-.3.4-.8.4-1.4 0-.7-.1-1.1-.4-1.4-.2-.4-.6-.5-1.1-.5s-.8.1-1.1.4c-.2.3-.4.8-.4 1.4 0 .7.1 1.1.4 1.4s.6.4 1.1.4c.5.1.9 0 1.1-.3z"/>
    <path class="st1" d="M65.9 6.8l2.5 3.3h-2.2l-1.4-2-1.4 2h-2.2l2.4-3.3-2.4-3.3h2.2l1.4 1.9 1.4-1.9h2.2l-2.5 3.3z"/>
</svg>
