<?xml version="1.0" encoding="utf-8"?>
<!-- Generator: Adobe Illustrator 21.0.0, SVG Export Plug-In . SVG Version: 6.00 Build 0)  -->
<svg version="1.1" id="Слой_1" xmlns="http://www.w3.org/2000/svg" xmlns:xlink="http://www.w3.org/1999/xlink" x="0px" y="0px"
	 viewBox="0 0 69 13" style="enable-background:new 0 0 69 13;" xml:space="preserve">
<style type="text/css">
	.st0{fill:#FFFFFF;}
	.st1{fill:#FF8272;}
</style>
<g>
	<path class="st0" d="M1.7,10.2C1.2,10.1,0.8,10,0.4,9.9V0.5h2v3.8h0.1C2.7,4,3,3.8,3.3,3.7C3.6,3.5,4,3.5,4.4,3.5
		c0.5,0,1,0.1,1.4,0.4s0.7,0.6,1,1.1C7,5.4,7.1,6,7.1,6.7c0,1.2-0.3,2-1,2.7s-1.7,0.9-3,0.9C2.7,10.3,2.2,10.2,1.7,10.2z M4.7,8.3
		C5,8,5.1,7.5,5.1,6.9c0-0.6-0.1-1.1-0.4-1.4C4.5,5.2,4.1,5.1,3.6,5.1c-0.2,0-0.5,0-0.7,0.1C2.8,5.3,2.6,5.4,2.4,5.5v3.1
		C2.7,8.7,3,8.8,3.3,8.8C3.9,8.8,4.4,8.6,4.7,8.3z"/>
	<path class="st0" d="M14.4,7.4h-4.3c0,0.3,0.1,0.6,0.2,0.8c0.1,0.2,0.4,0.3,0.7,0.4c0.3,0.1,0.7,0.1,1.2,0.1c0.5,0,1.1-0.1,1.8-0.2
		v1.4c-0.7,0.1-1.4,0.2-2.1,0.2c-0.9,0-1.6-0.1-2.2-0.4c-0.6-0.2-1-0.6-1.3-1.1S8.1,7.7,8.1,6.9c0-0.7,0.1-1.3,0.4-1.8
		c0.3-0.5,0.6-0.9,1.1-1.2s1.1-0.4,1.8-0.4c1,0,1.7,0.3,2.3,0.9c0.5,0.6,0.8,1.4,0.8,2.6V7.4z M10.4,5.1c-0.2,0.3-0.3,0.7-0.3,1.2
		h2.4c0-0.6-0.1-1-0.3-1.2c-0.2-0.3-0.5-0.4-0.9-0.4C10.9,4.7,10.6,4.8,10.4,5.1z"/>
	<path class="st0" d="M19.9,3.8c0.5,0.2,0.8,0.5,1,0.9s0.3,1,0.3,1.7v3.8h-1.7l-0.1-0.6h-0.1c-0.2,0.3-0.5,0.4-0.8,0.6
		c-0.3,0.1-0.7,0.2-1.1,0.2c-0.5,0-0.9-0.1-1.2-0.2c-0.3-0.2-0.6-0.4-0.8-0.7c-0.2-0.3-0.3-0.6-0.3-1c0-0.6,0.2-1.1,0.7-1.4
		c0.5-0.3,1.2-0.5,2.2-0.6l1.2-0.1v0c0-0.3-0.1-0.6-0.2-0.7c-0.1-0.2-0.3-0.3-0.5-0.4C18.4,5,18.1,5,17.7,5c-0.3,0-0.6,0-0.9,0.1
		c-0.3,0-0.7,0.1-1,0.2V3.8c0.3-0.1,0.7-0.2,1.1-0.2c0.4-0.1,0.8-0.1,1.1-0.1C18.8,3.5,19.4,3.6,19.9,3.8z M18.7,8.8
		c0.2-0.1,0.4-0.2,0.5-0.3V7.3l-1,0.1c-0.4,0-0.7,0.1-0.8,0.2s-0.3,0.3-0.3,0.6c0,0.2,0.1,0.4,0.2,0.5s0.4,0.2,0.7,0.2
		C18.3,8.9,18.5,8.9,18.7,8.8z"/>
	<path class="st0" d="M23.4,9.6c-0.4-0.4-0.7-1.1-0.7-2.1v-4h2v3.8c0,0.4,0.1,0.7,0.3,0.9c0.2,0.2,0.4,0.3,0.7,0.3
		c0.2,0,0.5,0,0.7-0.1C26.6,8.3,26.8,8.2,27,8V3.6h2v6.6h-1.6l-0.1-0.6h-0.1c-0.3,0.2-0.6,0.4-0.9,0.6s-0.7,0.2-1.1,0.2
		C24.4,10.3,23.8,10,23.4,9.6z"/>
	<path class="st0" d="M35,8.6v1.5c-0.2,0-0.4,0.1-0.6,0.1s-0.4,0-0.7,0c-1.7,0-2.6-0.8-2.6-2.5V5.2H30V3.6h1.1l0.4-2.3h1.6v2.3H35
		v1.6h-1.8v2.3c0,0.3,0,0.5,0.1,0.7c0.1,0.2,0.2,0.3,0.4,0.4c0.2,0.1,0.4,0.1,0.6,0.1C34.5,8.7,34.7,8.6,35,8.6z"/>
	<path class="st0" d="M40.4,3.6h2l-3.6,9.2h-2l1-2.6h-0.5l-2.5-6.6h2.1l1.7,4.8L40.4,3.6z"/>
	<path class="st1" d="M47.7,10.2c-0.5-0.1-0.9-0.2-1.3-0.3V0.5h2v3.8h0.1c0.2-0.2,0.5-0.4,0.8-0.5c0.3-0.1,0.7-0.2,1.1-0.2
		c0.5,0,1,0.1,1.4,0.4s0.7,0.6,1,1.1c0.2,0.5,0.4,1.1,0.4,1.8c0,1.2-0.3,2-1,2.7s-1.7,0.9-3,0.9C48.6,10.3,48.1,10.2,47.7,10.2z
		 M50.6,8.3c0.3-0.3,0.4-0.8,0.4-1.4c0-0.6-0.1-1.1-0.4-1.4c-0.3-0.3-0.6-0.4-1.1-0.4c-0.2,0-0.5,0-0.7,0.1
		c-0.2,0.1-0.4,0.2-0.6,0.3v3.1c0.3,0.1,0.6,0.1,0.9,0.1C49.9,8.8,50.3,8.6,50.6,8.3z"/>
	<path class="st1" d="M55.7,9.9c-0.5-0.3-0.9-0.6-1.2-1.2c-0.3-0.5-0.4-1.1-0.4-1.9c0-0.7,0.1-1.4,0.4-1.9c0.3-0.5,0.7-0.9,1.2-1.1
		c0.5-0.3,1.1-0.4,1.9-0.4s1.3,0.1,1.9,0.4c0.5,0.3,0.9,0.6,1.2,1.1C60.8,5.5,61,6.1,61,6.9c0,0.7-0.1,1.3-0.4,1.9
		c-0.3,0.5-0.7,0.9-1.2,1.2c-0.5,0.3-1.1,0.4-1.8,0.4C56.8,10.3,56.2,10.1,55.7,9.9z M58.6,8.3C58.8,8,59,7.5,59,6.9
		c0-0.7-0.1-1.1-0.4-1.4C58.4,5.1,58,5,57.5,5s-0.8,0.1-1.1,0.4c-0.2,0.3-0.4,0.8-0.4,1.4c0,0.7,0.1,1.1,0.4,1.4s0.6,0.4,1.1,0.4
		C58,8.7,58.4,8.6,58.6,8.3z"/>
	<path class="st1" d="M65.9,6.8l2.5,3.3h-2.2l-1.4-2l-1.4,2h-2.2l2.4-3.3l-2.4-3.3h2.2l1.4,1.9l1.4-1.9h2.2L65.9,6.8z"/>
</g>
</svg>
