<svg id="instagram" xmlns="http://www.w3.org/2000/svg" viewBox="0 0 38 38">
  <defs>
    <style>
      .cls-1 {
        fill: none;
      }

      .cls-2 {
        fill: #fffbfb;
      }

      .cls-3, .cls-4 {
        stroke: none;
      }

      .cls-4 {
        fill: #fff;
      }
    </style>
  </defs>
  <g id="Icon.BG" class="cls-1" transform="translate(0 0)">
    <path class="cls-3" d="M19,0A19,19,0,1,1,0,19,19,19,0,0,1,19,0Z"/>
    <path class="cls-4" d="M 19 1 C 14.19202995300293 1 9.671829223632813 2.872329711914063 6.272079467773438 6.272079467773438 C 2.872329711914063 9.671829223632813 1 14.19202995300293 1 19 C 1 23.80797004699707 2.872329711914063 28.32817077636719 6.272079467773438 31.72792053222656 C 9.671829223632813 35.12767028808594 14.19202995300293 37 19 37 C 23.80797004699707 37 28.32815933227539 35.12767028808594 31.72792053222656 31.72792053222656 C 35.12767028808594 28.32815933227539 37 23.80797004699707 37 19 C 37 14.19202995300293 35.12767028808594 9.671829223632813 31.72792053222656 6.272079467773438 C 28.32817077636719 2.872329711914063 23.80797004699707 1 19 1 M 19 0 C 29.49340057373047 0 38 8.506589889526367 38 19 C 38 29.49340057373047 29.49340057373047 38 19 38 C 8.506589889526367 38 0 29.49340057373047 0 19 C 0 8.506589889526367 8.506589889526367 0 19 0 Z"/>
  </g>
  <path id="Path_3968" data-name="Path 3968" class="cls-2" d="M12.994,0H4.953A4.958,4.958,0,0,0,0,4.953v8.042a4.958,4.958,0,0,0,4.953,4.953h8.041a4.958,4.958,0,0,0,4.953-4.953V4.953A4.958,4.958,0,0,0,12.994,0Zm3.361,12.994a3.364,3.364,0,0,1-3.36,3.36H4.953a3.364,3.364,0,0,1-3.36-3.36V4.953a3.364,3.364,0,0,1,3.36-3.36h8.041a3.364,3.364,0,0,1,3.36,3.36v8.042Z" transform="translate(10.045 9.996)"/>
  <path id="Path_3969" data-name="Path 3969" class="cls-2" d="M45.592,40.97a4.624,4.624,0,1,0,4.624,4.625A4.63,4.63,0,0,0,45.592,40.97Zm0,7.656a3.032,3.032,0,1,1,3.032-3.032A3.035,3.035,0,0,1,45.592,48.626Z" transform="translate(-26.574 -26.625)"/>
  <path id="Path_3970" data-name="Path 3970" class="cls-2" d="M120.089,28.251a1.167,1.167,0,1,0,.826.342A1.172,1.172,0,0,0,120.089,28.251Z" transform="translate(-96.254 -15.253)"/>
</svg>
