<svg id="vk" xmlns="http://www.w3.org/2000/svg" viewBox="0 0 38 38">
  <defs>
    <style>
      .cls-1, .cls-2 {
        fill: none;
      }

      .cls-2 {
        stroke: #fff;
      }

      .cls-3, .cls-4 {
        stroke: none;
      }

      .cls-4 {
        fill: #fff;
      }
    </style>
  </defs>
  <g id="Icon.BG" class="cls-1" transform="translate(0 0)">
    <path class="cls-3" d="M19,0A19,19,0,1,1,0,19,19,19,0,0,1,19,0Z"/>
    <path class="cls-4" d="M 19 1 C 14.19202995300293 1 9.671829223632813 2.872329711914063 6.272079467773438 6.272079467773438 C 2.872329711914063 9.671829223632813 1 14.19202995300293 1 19 C 1 23.80797004699707 2.872329711914063 28.32817077636719 6.272079467773438 31.72792053222656 C 9.671829223632813 35.12767028808594 14.19202995300293 37 19 37 C 23.80797004699707 37 28.32815933227539 35.12767028808594 31.72792053222656 31.72792053222656 C 35.12767028808594 28.32815933227539 37 23.80797004699707 37 19 C 37 14.19202995300293 35.12767028808594 9.671829223632813 31.72792053222656 6.272079467773438 C 28.32817077636719 2.872329711914063 23.80797004699707 1 19 1 M 19 0 C 29.49340057373047 0 38 8.506589889526367 38 19 C 38 29.49340057373047 29.49340057373047 38 19 38 C 8.506589889526367 38 0 29.49340057373047 0 19 C 0 8.506589889526367 8.506589889526367 0 19 0 Z"/>
  </g>
  <g id="vk-2" data-name="vk" transform="translate(8.107 14.067)">
    <g id="Group_1793" data-name="Group 1793" transform="translate(0 0)">
      <path id="Path_11850" data-name="Path 11850" class="cls-2" d="M19.709,120.045a8.867,8.867,0,0,0-1.975-2.285c-1.666-1.546-1.442-1.3.564-3.969,1.222-1.628,1.71-2.623,1.558-3.048-.145-.405-1.044-.3-1.044-.3l-2.988.017a.683.683,0,0,0-.387.068.842.842,0,0,0-.264.321,17.312,17.312,0,0,1-1.105,2.332c-1.331,2.261-1.865,2.38-2.082,2.24-.506-.327-.379-1.315-.379-2.016,0-2.192.332-3.105-.648-3.341a5.131,5.131,0,0,0-1.4-.139,6.455,6.455,0,0,0-2.481.254c-.341.167-.6.538-.443.559a1.34,1.34,0,0,1,.883.444,2.879,2.879,0,0,1,.3,1.354s.177,2.579-.411,2.9c-.4.22-.957-.229-2.144-2.281A19.133,19.133,0,0,1,4.2,110.944a.883.883,0,0,0-.246-.332,1.239,1.239,0,0,0-.46-.185l-2.842.017s-.426.012-.583.2c-.139.165-.011.506-.011.506s2.225,5.2,4.743,7.829a6.825,6.825,0,0,0,4.934,2.247h1.188a1,1,0,0,0,.542-.237.866.866,0,0,0,.163-.522s-.024-1.595.717-1.83,1.667,1.541,2.66,2.224a1.881,1.881,0,0,0,1.321.4l2.656-.037S20.368,121.138,19.709,120.045Z" transform="translate(0 -109.924)"/>
    </g>
  </g>
</svg>
