<svg xmlns="http://www.w3.org/2000/svg" viewBox="0 0 38 38">
  <defs>
    <style>
      .cls-1 {
        fill: none;
      }

      .cls-2, .cls-4 {
        fill: #fff;
      }

      .cls-3, .cls-4 {
        stroke: none;
      }
    </style>
  </defs>
  <g id="Whatsapp" transform="translate(0)">
    <g id="Icon.BG" class="cls-1" transform="translate(0 0)">
      <path class="cls-3" d="M19,0A19,19,0,1,1,7.584,34.155c-.559-.408-5.011,2.89-5.8,2.131-.587-.559,2.5-5.236,1.778-6.208A18.7,18.7,0,0,1,0,19,19,19,0,0,1,19,0Z"/>
      <path class="cls-4" d="M 19 1 C 14.19202995300293 1 9.671829223632813 2.872329711914063 6.272079467773438 6.272079467773438 C 2.872329711914063 9.671829223632813 1 14.19202995300293 1 19 C 1 22.84074974060059 2.194961547851563 26.5632209777832 4.365341186523438 29.48250961303711 C 5.068328857421875 30.43003082275391 4.490280151367188 31.84452056884766 3.488899230957031 34.07392883300781 C 3.352752685546875 34.37704086303711 3.185264587402344 34.74993515014648 3.040386199951172 35.09527969360352 C 3.634613037109375 34.8267822265625 4.35101318359375 34.44321441650391 4.784969329833984 34.21088027954102 C 6.123659133911133 33.49414825439453 6.850009918212891 33.12014007568359 7.446649551391602 33.12014007568359 C 7.790140151977539 33.12014007568359 8.031770706176758 33.24409103393555 8.175579071044922 33.34923934936523 C 11.47509956359863 35.77170944213867 15.1169605255127 37 19 37 C 23.80797004699707 37 28.32815933227539 35.12767028808594 31.72792053222656 31.72792053222656 C 35.12767028808594 28.32815933227539 37 23.80797004699707 37 19 C 37 14.19202995300293 35.12767028808594 9.671829223632813 31.72792053222656 6.272079467773438 C 28.32817077636719 2.872329711914063 23.80797004699707 1 19 1 M 19 0 C 29.49340057373047 0 38 8.506589889526367 38 19 C 38 29.49340057373047 29.49340057373047 38 19 38 C 14.84734916687012 38 11.0058708190918 36.66778182983398 7.583770751953125 34.15531921386719 C 7.551004409790039 34.13136291503906 7.504682540893555 34.12014007568359 7.446647644042969 34.12014007568359 C 6.618030548095703 34.12014007568359 3.36920166015625 36.39994430541992 2.139774322509766 36.39994430541992 C 1.987270355224609 36.39994430541992 1.866065979003906 36.36493682861328 1.7841796875 36.2861213684082 C 1.197360992431641 35.72737121582031 4.282939910888672 31.04973983764648 3.562240600585938 30.07835006713867 C 1.388439178466797 27.15447044372559 0 23.2393798828125 0 19 C 0 8.506589889526367 8.506589889526367 0 19 0 Z"/>
    </g>
    <path id="Path_11849" data-name="Path 11849" class="cls-2" d="M27.484,21.842c-1-.553-1.843-1.108-2.462-1.513-.472-.309-.814-.532-1.064-.658a1.224,1.224,0,0,0-1.431.1.54.54,0,0,0-.067.082,7.586,7.586,0,0,1-1.953,2.191A12.984,12.984,0,0,1,17.191,19.9c-1.524-1.271-2.483-2.489-2.624-3.318.978-1.007,1.33-1.641,1.33-2.362a15.285,15.285,0,0,0-2.046-4.161c-.314-.314-1.023-.363-2.1-.147a.544.544,0,0,0-.276.147c-.131.131-3.2,3.261-1.74,7.054,1.6,4.163,5.705,9,10.94,9.788a11.332,11.332,0,0,0,1.675.133c3.079,0,4.9-1.551,5.409-4.628A.538.538,0,0,0,27.484,21.842Zm-6.653,3.987C15.3,25,11.809,19.508,10.738,16.721c-1.062-2.764.9-5.229,1.389-5.786a4.064,4.064,0,0,1,1-.069,19.4,19.4,0,0,1,1.7,3.349c0,.283-.092.678-1.19,1.778a.538.538,0,0,0-.158.382c0,2.827,5.956,6.748,7.011,6.748.917,0,2.114-1.543,2.795-2.549a.511.511,0,0,1,.2.063c.194.1.531.317.956.6.562.368,1.308.856,2.19,1.362C26.222,24.522,25.1,26.471,20.831,25.829Z" transform="translate(0.115 2.005)"/>
    <path id="Path_11852" data-name="Path 11852" class="cls-2" d="M283.04,70.147a7.007,7.007,0,0,1,7,7,.412.412,0,1,0,.823,0,7.832,7.832,0,0,0-7.823-7.823.412.412,0,1,0,0,.823Z" transform="translate(-262.562 -59.578)"/>
    <path id="Path_11853" data-name="Path 11853" class="cls-2" d="M283.04,121.347a4.535,4.535,0,0,1,4.529,4.529.412.412,0,1,0,.823,0,5.359,5.359,0,0,0-5.352-5.353.412.412,0,1,0,0,.823Z" transform="translate(-262.561 -108.308)"/>
    <path id="Path_11854" data-name="Path 11854" class="cls-2" d="M283.04,172.547a2.061,2.061,0,0,1,2.059,2.059.412.412,0,1,0,.824,0,2.885,2.885,0,0,0-2.882-2.882.412.412,0,0,0,0,.823Z" transform="translate(-262.56 -157.039)"/>
  </g>
</svg>
